<svg width="232" height="188" viewBox="0 0 232 188" fill="none" xmlns="http://www.w3.org/2000/svg">
            <rect x="1" y="1.5" width="230" height="185" rx="5" fill="white" stroke="#D4DBE3" stroke-width="2"></rect>
            <circle cx="17.5" cy="19" r="3.5" fill="#D8DEE5" stroke="#C6CDD5" stroke-width="0.5"></circle>
            <circle cx="28.5" cy="19" r="3.5" fill="#D8DEE5" stroke="#C6CDD5" stroke-width="0.5"></circle>
            <circle cx="39.5" cy="19" r="3.25" fill="white" stroke="#C6CDD5" stroke-width="0.5"></circle>
            <rect x="14" y="82.5" width="41" height="41" rx="5" fill="#F1F3F6"></rect>
            <rect x="14" y="131.5" width="41" height="41" rx="5" fill="#F1F3F6"></rect>
            <rect x="69" y="82.5" width="41" height="41" rx="5" fill="#F1F3F6"></rect>
            <rect x="69" y="131.5" width="41" height="41" rx="5" fill="#F1F3F6"></rect>
            <rect x="124" y="82.5" width="41" height="41" rx="5" fill="#F1F3F6"></rect>
            <rect x="124" y="131.5" width="41" height="41" rx="5" fill="#F1F3F6"></rect>
            <rect x="179" y="82.5" width="41" height="41" rx="5" fill="#F1F3F6"></rect>
            <rect x="179" y="131.5" width="41" height="41" rx="5" fill="#F1F3F6"></rect>
            <rect x="14" y="33.5" width="205" height="22" rx="5" fill="white" stroke="#D8DEE5" stroke-width="2"></rect>
            <line x1="1" y1="70.5" x2="231" y2="70.5" stroke="#D4DBE3" stroke-width="2"></line>
            <rect x="112" y="62.5" width="44" height="20" rx="5" fill="#518BE0"></rect>
            <path d="M133.234 56.4119C133.634 55.936 134.366 55.936 134.766 56.4119L139.548 62.1069C140.095 62.7575 139.632 63.75 138.783 63.75H129.217C128.368 63.75 127.905 62.7575 128.452 62.1069L133.234 56.4119Z" fill="#518BE0"></path>
            <path d="M152.182 76.6757L155.209 76.785L178.647 88.7597L180.257 91.2245L172.376 93.7658L173.168 96.2231L174.637 96.5632L177.875 99.8595L179.143 103.791L175.202 105.062L168.726 98.4691L166.755 99.1044L164.082 104.307L161.694 105.755L152.182 76.6757Z" fill="white"></path>
            <path d="M178.647 88.7596L180.617 88.1242L181.885 92.0559L174.003 94.5972L174.637 96.563L172.667 97.1983L171.399 93.2666L179.281 90.7254L178.647 88.7596ZM178.647 88.7596L178.013 86.7937L176.043 87.429L176.676 89.3949L178.647 88.7596ZM176.043 87.429L175.409 85.4632L173.438 86.0985L174.072 88.0643L176.043 87.429ZM173.438 86.0985L172.804 84.1327L170.834 84.768L171.468 86.7338L173.438 86.0985ZM170.834 84.768L170.2 82.8021L168.23 83.4375L168.864 85.4033L170.834 84.768ZM168.23 83.4375L167.596 81.4716L165.626 82.1069L166.259 84.0728L168.23 83.4375ZM165.626 82.1069L164.992 80.1411L163.021 80.7764L163.655 82.7422L165.626 82.1069ZM163.021 80.7764L162.387 78.8106L160.417 79.4459L161.051 81.4117L163.021 80.7764ZM160.417 79.4459L159.783 77.48L157.813 78.1154L158.447 80.0812L160.417 79.4459ZM157.813 78.1154L157.179 76.1495L155.209 76.7848L155.842 78.7507L157.813 78.1154ZM153.238 77.4201L155.209 76.7848L154.575 74.819L152.604 75.4543L151.97 73.4885L150 74.1238L160.775 107.543L164.716 106.272L164.082 104.307L162.112 104.942L153.238 77.4201ZM166.122 97.1384L166.755 99.1042L168.726 98.4689L168.092 96.5031L166.122 97.1384ZM165.419 101.705L167.389 101.07L166.755 99.1042L164.785 99.7395L165.419 101.705ZM164.082 104.307L166.053 103.671L165.419 101.705L163.448 102.341L164.082 104.307ZM168.726 98.4689L169.993 102.401L171.964 101.765L170.696 97.8336L168.726 98.4689ZM171.964 101.765L173.232 105.697L175.202 105.062L173.934 101.13L171.964 101.765ZM181.113 103.156L179.846 99.224L177.875 99.8594L179.143 103.791L181.113 103.156ZM177.875 99.8594L176.607 95.9277L174.637 96.563L175.905 100.495L177.875 99.8594ZM175.836 107.027L179.777 105.757L179.143 103.791L175.202 105.062L175.836 107.027Z" fill="black"></path>
            <path d="M20.7686 49.5V40.38H21.9086V44.064H21.9806C22.0366 43.968 22.1286 43.836 22.2566 43.668C22.3926 43.5 22.5846 43.352 22.8326 43.224C23.0806 43.088 23.3926 43.02 23.7686 43.02C24.2326 43.02 24.6286 43.128 24.9566 43.344C25.2846 43.552 25.5326 43.836 25.7006 44.196C25.8766 44.556 25.9646 44.96 25.9646 45.408V49.5H24.8246V45.48C24.8246 45.056 24.7046 44.704 24.4646 44.424C24.2326 44.144 23.8926 44.004 23.4446 44.004C23.0846 44.004 22.7926 44.096 22.5686 44.28C22.3446 44.456 22.1766 44.692 22.0646 44.988C21.9606 45.276 21.9086 45.584 21.9086 45.912V49.5H20.7686ZM30.1103 49.62C29.4543 49.62 28.9583 49.452 28.6223 49.116C28.2943 48.78 28.1303 48.308 28.1303 47.7V44.076H26.9903V43.14H28.1303V41.544H29.2703V43.14H30.8183V44.076H29.2703V47.7C29.2703 48.02 29.3583 48.256 29.5343 48.408C29.7103 48.552 29.9663 48.624 30.3023 48.624C30.4783 48.624 30.6463 48.612 30.8063 48.588C30.9663 48.564 31.0463 48.552 31.0463 48.552V49.524C31.0463 49.524 30.9543 49.54 30.7703 49.572C30.5863 49.604 30.3663 49.62 30.1103 49.62ZM35.1259 49.62C34.4699 49.62 33.9739 49.452 33.6379 49.116C33.3099 48.78 33.1459 48.308 33.1459 47.7V44.076H32.0059V43.14H33.1459V41.544H34.2859V43.14H35.8339V44.076H34.2859V47.7C34.2859 48.02 34.3739 48.256 34.5499 48.408C34.7259 48.552 34.9819 48.624 35.3179 48.624C35.4939 48.624 35.6619 48.612 35.8219 48.588C35.9819 48.564 36.0619 48.552 36.0619 48.552V49.524C36.0619 49.524 35.9699 49.54 35.7859 49.572C35.6019 49.604 35.3819 49.62 35.1259 49.62ZM37.6788 51.852V43.14H38.8188V44.148H38.8908C38.9868 43.996 39.1148 43.832 39.2748 43.656C39.4428 43.48 39.6628 43.332 39.9348 43.212C40.2068 43.084 40.5428 43.02 40.9428 43.02C41.4228 43.02 41.8428 43.116 42.2028 43.308C42.5628 43.492 42.8628 43.744 43.1028 44.064C43.3428 44.376 43.5228 44.728 43.6428 45.12C43.7628 45.512 43.8228 45.912 43.8228 46.32C43.8228 46.728 43.7628 47.128 43.6428 47.52C43.5228 47.912 43.3428 48.268 43.1028 48.588C42.8628 48.9 42.5628 49.152 42.2028 49.344C41.8428 49.528 41.4228 49.62 40.9428 49.62C40.5428 49.62 40.2068 49.556 39.9348 49.428C39.6628 49.3 39.4428 49.148 39.2748 48.972C39.1148 48.796 38.9868 48.636 38.8908 48.492H38.8188V51.852H37.6788ZM38.8428 46.32C38.8428 46.704 38.9108 47.076 39.0468 47.436C39.1908 47.788 39.4028 48.08 39.6828 48.312C39.9708 48.536 40.3268 48.648 40.7508 48.648C41.1828 48.648 41.5388 48.536 41.8188 48.312C42.1068 48.08 42.3188 47.788 42.4548 47.436C42.5988 47.076 42.6708 46.704 42.6708 46.32C42.6708 45.928 42.5988 45.556 42.4548 45.204C42.3188 44.852 42.1068 44.564 41.8188 44.34C41.5388 44.108 41.1828 43.992 40.7508 43.992C40.3268 43.992 39.9708 44.108 39.6828 44.34C39.4028 44.564 39.1908 44.852 39.0468 45.204C38.9108 45.556 38.8428 45.928 38.8428 46.32ZM47.7149 49.62C47.2269 49.62 46.8229 49.552 46.5029 49.416C46.1909 49.28 45.9429 49.112 45.7589 48.912C45.5749 48.704 45.4389 48.5 45.3509 48.3C45.2629 48.092 45.2069 47.92 45.1829 47.784C45.1589 47.648 45.1469 47.58 45.1469 47.58H46.2989C46.2989 47.58 46.3109 47.636 46.3349 47.748C46.3669 47.852 46.4269 47.976 46.5149 48.12C46.6109 48.256 46.7549 48.38 46.9469 48.492C47.1469 48.596 47.4109 48.648 47.7389 48.648C48.1149 48.648 48.4069 48.56 48.6149 48.384C48.8229 48.2 48.9269 47.976 48.9269 47.712C48.9269 47.48 48.8429 47.296 48.6749 47.16C48.5149 47.024 48.2829 46.92 47.9789 46.848L47.1149 46.644C46.7949 46.564 46.4949 46.456 46.2149 46.32C45.9349 46.184 45.7069 46 45.5309 45.768C45.3629 45.528 45.2789 45.232 45.2789 44.88C45.2789 44.336 45.4829 43.892 45.8909 43.548C46.2989 43.196 46.8309 43.02 47.4869 43.02C47.9269 43.02 48.2909 43.084 48.5789 43.212C48.8669 43.332 49.0949 43.484 49.2629 43.668C49.4389 43.852 49.5669 44.036 49.6469 44.22C49.7349 44.404 49.7909 44.56 49.8149 44.688C49.8389 44.808 49.8509 44.868 49.8509 44.868H48.7469C48.7469 44.868 48.7349 44.824 48.7109 44.736C48.6869 44.64 48.6309 44.536 48.5429 44.424C48.4629 44.304 48.3389 44.2 48.1709 44.112C48.0029 44.016 47.7789 43.968 47.4989 43.968C47.1149 43.968 46.8349 44.056 46.6589 44.232C46.4829 44.408 46.3949 44.6 46.3949 44.808C46.3949 45.008 46.4749 45.172 46.6349 45.3C46.8029 45.42 47.0189 45.512 47.2829 45.576L48.1589 45.78C48.7029 45.908 49.1509 46.12 49.5029 46.416C49.8629 46.704 50.0429 47.12 50.0429 47.664C50.0429 48.016 49.9509 48.344 49.7669 48.648C49.5829 48.944 49.3189 49.18 48.9749 49.356C48.6309 49.532 48.2109 49.62 47.7149 49.62ZM52.3566 44.58C52.1326 44.58 51.9446 44.504 51.7926 44.352C51.6486 44.192 51.5766 44.008 51.5766 43.8C51.5766 43.584 51.6486 43.4 51.7926 43.248C51.9446 43.096 52.1326 43.02 52.3566 43.02C52.5806 43.02 52.7646 43.096 52.9086 43.248C53.0606 43.4 53.1366 43.584 53.1366 43.8C53.1366 44.016 53.0606 44.2 52.9086 44.352C52.7646 44.504 52.5806 44.58 52.3566 44.58ZM52.3566 49.62C52.1326 49.62 51.9446 49.544 51.7926 49.392C51.6486 49.232 51.5766 49.048 51.5766 48.84C51.5766 48.624 51.6486 48.44 51.7926 48.288C51.9446 48.136 52.1326 48.06 52.3566 48.06C52.5806 48.06 52.7646 48.136 52.9086 48.288C53.0606 48.44 53.1366 48.624 53.1366 48.84C53.1366 49.056 53.0606 49.24 52.9086 49.392C52.7646 49.544 52.5806 49.62 52.3566 49.62ZM54.5542 51.312L58.7182 39.612H59.8102L55.6462 51.312H54.5542ZM59.0308 51.312L63.1948 39.612H64.2868L60.1228 51.312H59.0308ZM67.0579 49.5L65.0059 43.14H66.1699L67.6819 47.964L69.2659 43.14H70.3459L71.9179 47.964L73.4419 43.14H74.6059L72.5419 49.5H71.3179L69.8059 44.808L68.2939 49.5H67.0579ZM77.8626 49.5L75.8106 43.14H76.9746L78.4866 47.964L80.0706 43.14H81.1506L82.7226 47.964L84.2466 43.14H85.4106L83.3466 49.5H82.1226L80.6106 44.808L79.0986 49.5H77.8626ZM88.6673 49.5L86.6153 43.14H87.7793L89.2913 47.964L90.8753 43.14H91.9553L93.5273 47.964L95.0513 43.14H96.2153L94.1513 49.5H92.9273L91.4153 44.808L89.9033 49.5H88.6673ZM98.3527 49.62C98.1287 49.62 97.9407 49.544 97.7887 49.392C97.6447 49.232 97.5727 49.048 97.5727 48.84C97.5727 48.624 97.6447 48.44 97.7887 48.288C97.9407 48.136 98.1287 48.06 98.3527 48.06C98.5767 48.06 98.7607 48.136 98.9047 48.288C99.0567 48.44 99.1327 48.624 99.1327 48.84C99.1327 49.056 99.0567 49.24 98.9047 49.392C98.7607 49.544 98.5767 49.62 98.3527 49.62ZM101.15 51.84C100.966 51.84 100.81 51.832 100.682 51.816C100.554 51.8 100.49 51.792 100.49 51.792V50.82C100.49 50.82 100.554 50.824 100.682 50.832C100.818 50.848 100.962 50.856 101.114 50.856C101.586 50.856 101.97 50.756 102.266 50.556C102.57 50.364 102.826 50.044 103.034 49.596L100.574 43.14H101.762L103.598 48.108L105.446 43.14H106.646L104.186 49.512C103.874 50.312 103.47 50.9 102.974 51.276C102.486 51.652 101.878 51.84 101.15 51.84ZM110.497 49.62C109.817 49.62 109.245 49.464 108.781 49.152C108.317 48.832 107.965 48.42 107.725 47.916C107.485 47.412 107.365 46.88 107.365 46.32C107.365 45.752 107.485 45.22 107.725 44.724C107.965 44.22 108.317 43.812 108.781 43.5C109.245 43.18 109.817 43.02 110.497 43.02C111.177 43.02 111.749 43.18 112.213 43.5C112.677 43.812 113.029 44.22 113.269 44.724C113.509 45.22 113.629 45.752 113.629 46.32C113.629 46.88 113.509 47.412 113.269 47.916C113.029 48.42 112.677 48.832 112.213 49.152C111.749 49.464 111.177 49.62 110.497 49.62ZM110.497 48.624C110.929 48.624 111.289 48.516 111.577 48.3C111.873 48.076 112.093 47.788 112.237 47.436C112.389 47.084 112.465 46.712 112.465 46.32C112.465 45.92 112.389 45.548 112.237 45.204C112.093 44.852 111.873 44.568 111.577 44.352C111.289 44.128 110.929 44.016 110.497 44.016C110.073 44.016 109.713 44.128 109.417 44.352C109.121 44.568 108.897 44.852 108.745 45.204C108.601 45.548 108.529 45.92 108.529 46.32C108.529 46.712 108.601 47.084 108.745 47.436C108.897 47.788 109.121 48.076 109.417 48.3C109.713 48.516 110.073 48.624 110.497 48.624ZM117.26 49.62C116.628 49.62 116.124 49.424 115.748 49.032C115.372 48.64 115.184 48.096 115.184 47.4V43.14H116.324V47.34C116.324 47.756 116.436 48.076 116.66 48.3C116.892 48.524 117.196 48.636 117.572 48.636C117.956 48.636 118.264 48.536 118.496 48.336C118.728 48.136 118.896 47.88 119 47.568C119.104 47.256 119.156 46.936 119.156 46.608V43.14H120.296V49.5H119.156V48.588H119.084C119.036 48.684 118.944 48.816 118.808 48.984C118.672 49.144 118.48 49.292 118.232 49.428C117.984 49.556 117.66 49.62 117.26 49.62ZM124.681 49.62C124.025 49.62 123.529 49.452 123.193 49.116C122.865 48.78 122.701 48.308 122.701 47.7V44.076H121.561V43.14H122.701V41.544H123.841V43.14H125.389V44.076H123.841V47.7C123.841 48.02 123.929 48.256 124.105 48.408C124.281 48.552 124.537 48.624 124.873 48.624C125.049 48.624 125.217 48.612 125.377 48.588C125.537 48.564 125.617 48.552 125.617 48.552V49.524C125.617 49.524 125.525 49.54 125.341 49.572C125.157 49.604 124.937 49.62 124.681 49.62ZM129.189 49.62C128.557 49.62 128.053 49.424 127.677 49.032C127.301 48.64 127.113 48.096 127.113 47.4V43.14H128.253V47.34C128.253 47.756 128.365 48.076 128.589 48.3C128.821 48.524 129.125 48.636 129.501 48.636C129.885 48.636 130.193 48.536 130.425 48.336C130.657 48.136 130.825 47.88 130.929 47.568C131.033 47.256 131.085 46.936 131.085 46.608V43.14H132.225V49.5H131.085V48.588H131.013C130.965 48.684 130.873 48.816 130.737 48.984C130.601 49.144 130.409 49.292 130.161 49.428C129.913 49.556 129.589 49.62 129.189 49.62ZM137.294 49.62C136.894 49.62 136.558 49.556 136.286 49.428C136.014 49.3 135.794 49.148 135.626 48.972C135.466 48.796 135.338 48.636 135.242 48.492H135.17V49.5H134.03V40.38H135.17V44.148H135.242C135.338 43.996 135.466 43.832 135.626 43.656C135.794 43.48 136.014 43.332 136.286 43.212C136.558 43.084 136.894 43.02 137.294 43.02C137.774 43.02 138.194 43.116 138.554 43.308C138.914 43.492 139.214 43.744 139.454 44.064C139.694 44.376 139.874 44.728 139.994 45.12C140.114 45.512 140.174 45.912 140.174 46.32C140.174 46.728 140.114 47.128 139.994 47.52C139.874 47.912 139.694 48.268 139.454 48.588C139.214 48.9 138.914 49.152 138.554 49.344C138.194 49.528 137.774 49.62 137.294 49.62ZM137.102 48.648C137.534 48.648 137.89 48.536 138.17 48.312C138.458 48.08 138.67 47.788 138.806 47.436C138.95 47.076 139.022 46.704 139.022 46.32C139.022 45.928 138.95 45.556 138.806 45.204C138.67 44.852 138.458 44.564 138.17 44.34C137.89 44.108 137.534 43.992 137.102 43.992C136.678 43.992 136.322 44.108 136.034 44.34C135.754 44.564 135.542 44.852 135.398 45.204C135.262 45.556 135.194 45.928 135.194 46.32C135.194 46.704 135.262 47.076 135.398 47.436C135.542 47.788 135.754 48.08 136.034 48.312C136.322 48.536 136.678 48.648 137.102 48.648ZM144.572 49.62C144.052 49.62 143.6 49.528 143.216 49.344C142.84 49.152 142.528 48.896 142.28 48.576C142.04 48.256 141.86 47.904 141.74 47.52C141.62 47.128 141.56 46.728 141.56 46.32C141.56 45.92 141.616 45.524 141.728 45.132C141.848 44.74 142.028 44.384 142.268 44.064C142.516 43.744 142.824 43.492 143.192 43.308C143.568 43.116 144.012 43.02 144.524 43.02C145.068 43.02 145.548 43.144 145.964 43.392C146.38 43.64 146.708 44.008 146.948 44.496C147.188 44.984 147.308 45.596 147.308 46.332V46.668H142.712C142.736 47.028 142.82 47.36 142.964 47.664C143.116 47.96 143.328 48.2 143.6 48.384C143.872 48.56 144.196 48.648 144.572 48.648C144.9 48.648 145.164 48.596 145.364 48.492C145.572 48.38 145.736 48.252 145.856 48.108C145.976 47.964 146.056 47.84 146.096 47.736C146.144 47.624 146.168 47.568 146.168 47.568H147.236C147.236 47.568 147.216 47.64 147.176 47.784C147.136 47.92 147.064 48.088 146.96 48.288C146.856 48.488 146.704 48.692 146.504 48.9C146.304 49.1 146.048 49.272 145.736 49.416C145.424 49.552 145.036 49.62 144.572 49.62ZM142.724 45.78H146.192C146.176 45.364 146.088 45.028 145.928 44.772C145.768 44.508 145.564 44.312 145.316 44.184C145.068 44.056 144.804 43.992 144.524 43.992C144.02 43.992 143.608 44.156 143.288 44.484C142.968 44.804 142.78 45.236 142.724 45.78ZM149.739 49.62C149.515 49.62 149.327 49.544 149.175 49.392C149.031 49.232 148.959 49.048 148.959 48.84C148.959 48.624 149.031 48.44 149.175 48.288C149.327 48.136 149.515 48.06 149.739 48.06C149.963 48.06 150.147 48.136 150.291 48.288C150.443 48.44 150.519 48.624 150.519 48.84C150.519 49.056 150.443 49.24 150.291 49.392C150.147 49.544 149.963 49.62 149.739 49.62ZM155.309 49.62C154.789 49.62 154.333 49.528 153.941 49.344C153.549 49.152 153.221 48.9 152.957 48.588C152.701 48.268 152.505 47.912 152.369 47.52C152.241 47.128 152.177 46.728 152.177 46.32C152.177 45.912 152.241 45.516 152.369 45.132C152.497 44.74 152.689 44.384 152.945 44.064C153.209 43.744 153.537 43.492 153.929 43.308C154.321 43.116 154.781 43.02 155.309 43.02C155.821 43.02 156.245 43.096 156.581 43.248C156.917 43.4 157.185 43.592 157.385 43.824C157.593 44.048 157.745 44.276 157.841 44.508C157.945 44.732 158.013 44.92 158.045 45.072C158.077 45.224 158.093 45.3 158.093 45.3H156.989C156.989 45.3 156.969 45.236 156.929 45.108C156.889 44.972 156.813 44.82 156.701 44.652C156.589 44.484 156.421 44.336 156.197 44.208C155.973 44.072 155.677 44.004 155.309 44.004C154.869 44.004 154.497 44.116 154.193 44.34C153.897 44.556 153.673 44.84 153.521 45.192C153.377 45.544 153.305 45.92 153.305 46.32C153.305 46.72 153.377 47.096 153.521 47.448C153.673 47.8 153.897 48.088 154.193 48.312C154.497 48.528 154.869 48.636 155.309 48.636C155.677 48.636 155.973 48.572 156.197 48.444C156.421 48.308 156.589 48.156 156.701 47.988C156.813 47.82 156.889 47.672 156.929 47.544C156.969 47.408 156.989 47.34 156.989 47.34H158.093C158.093 47.34 158.077 47.416 158.045 47.568C158.013 47.72 157.945 47.912 157.841 48.144C157.745 48.368 157.593 48.596 157.385 48.828C157.185 49.052 156.917 49.24 156.581 49.392C156.245 49.544 155.821 49.62 155.309 49.62ZM162.668 49.62C161.988 49.62 161.416 49.464 160.952 49.152C160.488 48.832 160.136 48.42 159.896 47.916C159.656 47.412 159.536 46.88 159.536 46.32C159.536 45.752 159.656 45.22 159.896 44.724C160.136 44.22 160.488 43.812 160.952 43.5C161.416 43.18 161.988 43.02 162.668 43.02C163.348 43.02 163.92 43.18 164.384 43.5C164.848 43.812 165.2 44.22 165.44 44.724C165.68 45.22 165.8 45.752 165.8 46.32C165.8 46.88 165.68 47.412 165.44 47.916C165.2 48.42 164.848 48.832 164.384 49.152C163.92 49.464 163.348 49.62 162.668 49.62ZM162.668 48.624C163.1 48.624 163.46 48.516 163.748 48.3C164.044 48.076 164.264 47.788 164.408 47.436C164.56 47.084 164.636 46.712 164.636 46.32C164.636 45.92 164.56 45.548 164.408 45.204C164.264 44.852 164.044 44.568 163.748 44.352C163.46 44.128 163.1 44.016 162.668 44.016C162.244 44.016 161.884 44.128 161.588 44.352C161.292 44.568 161.068 44.852 160.916 45.204C160.772 45.548 160.7 45.92 160.7 46.32C160.7 46.712 160.772 47.084 160.916 47.436C161.068 47.788 161.292 48.076 161.588 48.3C161.884 48.516 162.244 48.624 162.668 48.624ZM167.356 49.5V43.14H168.496V44.064H168.544C168.608 43.944 168.708 43.804 168.844 43.644C168.98 43.476 169.164 43.332 169.396 43.212C169.636 43.084 169.936 43.02 170.296 43.02C170.768 43.02 171.164 43.136 171.484 43.368C171.812 43.592 172.056 43.896 172.216 44.28H172.228C172.404 43.928 172.652 43.632 172.972 43.392C173.3 43.144 173.724 43.02 174.244 43.02C174.932 43.02 175.46 43.256 175.828 43.728C176.204 44.192 176.392 44.792 176.392 45.528V49.5H175.252V45.588C175.252 45.116 175.14 44.736 174.916 44.448C174.692 44.152 174.368 44.004 173.944 44.004C173.576 44.004 173.28 44.104 173.056 44.304C172.84 44.504 172.684 44.752 172.588 45.048C172.492 45.344 172.444 45.64 172.444 45.936V49.5H171.304V45.588C171.304 45.116 171.192 44.736 170.968 44.448C170.752 44.152 170.428 44.004 169.996 44.004C169.628 44.004 169.332 44.104 169.108 44.304C168.892 44.504 168.736 44.756 168.64 45.06C168.544 45.356 168.496 45.648 168.496 45.936V49.5H167.356ZM177.707 51.312L181.871 39.612H182.963L178.799 51.312H177.707ZM185.734 49.5L183.682 43.14H184.846L186.358 47.964L187.942 43.14H189.022L190.594 47.964L192.118 43.14H193.282L191.218 49.5H189.994L188.482 44.808L186.97 49.5H185.734ZM197.069 43.02C197.469 43.02 197.805 43.084 198.077 43.212C198.349 43.34 198.569 43.492 198.737 43.668C198.905 43.836 199.033 43.996 199.121 44.148H199.193V43.14H200.333V49.5H199.193V48.492H199.121C199.033 48.644 198.905 48.808 198.737 48.984C198.569 49.16 198.349 49.312 198.077 49.44C197.805 49.56 197.469 49.62 197.069 49.62C196.589 49.62 196.169 49.528 195.809 49.344C195.449 49.152 195.149 48.9 194.909 48.588C194.669 48.268 194.489 47.912 194.369 47.52C194.249 47.128 194.189 46.728 194.189 46.32C194.189 45.912 194.249 45.512 194.369 45.12C194.489 44.728 194.669 44.376 194.909 44.064C195.149 43.744 195.449 43.492 195.809 43.308C196.169 43.116 196.589 43.02 197.069 43.02ZM197.261 43.992C196.837 43.992 196.481 44.108 196.193 44.34C195.905 44.564 195.689 44.852 195.545 45.204C195.409 45.556 195.341 45.928 195.341 46.32C195.341 46.704 195.409 47.076 195.545 47.436C195.689 47.788 195.905 48.08 196.193 48.312C196.481 48.536 196.837 48.648 197.261 48.648C197.685 48.648 198.037 48.536 198.317 48.312C198.605 48.08 198.817 47.788 198.953 47.436C199.097 47.076 199.169 46.704 199.169 46.32C199.169 45.928 199.097 45.556 198.953 45.204C198.817 44.852 198.605 44.564 198.317 44.34C198.037 44.108 197.685 43.992 197.261 43.992ZM204.474 49.62C203.818 49.62 203.322 49.452 202.986 49.116C202.658 48.78 202.494 48.308 202.494 47.7V44.076H201.354V43.14H202.494V41.544H203.634V43.14H205.182V44.076H203.634V47.7C203.634 48.02 203.722 48.256 203.898 48.408C204.074 48.552 204.33 48.624 204.666 48.624C204.842 48.624 205.01 48.612 205.17 48.588C205.33 48.564 205.41 48.552 205.41 48.552V49.524C205.41 49.524 205.318 49.54 205.134 49.572C204.95 49.604 204.73 49.62 204.474 49.62ZM209.684 49.62C209.164 49.62 208.708 49.528 208.316 49.344C207.924 49.152 207.596 48.9 207.332 48.588C207.076 48.268 206.88 47.912 206.744 47.52C206.616 47.128 206.552 46.728 206.552 46.32C206.552 45.912 206.616 45.516 206.744 45.132C206.872 44.74 207.064 44.384 207.32 44.064C207.584 43.744 207.912 43.492 208.304 43.308C208.696 43.116 209.156 43.02 209.684 43.02C210.196 43.02 210.62 43.096 210.956 43.248C211.292 43.4 211.56 43.592 211.76 43.824C211.968 44.048 212.12 44.276 212.216 44.508C212.32 44.732 212.388 44.92 212.42 45.072C212.452 45.224 212.468 45.3 212.468 45.3H211.364C211.364 45.3 211.344 45.236 211.304 45.108C211.264 44.972 211.188 44.82 211.076 44.652C210.964 44.484 210.796 44.336 210.572 44.208C210.348 44.072 210.052 44.004 209.684 44.004C209.244 44.004 208.872 44.116 208.568 44.34C208.272 44.556 208.048 44.84 207.896 45.192C207.752 45.544 207.68 45.92 207.68 46.32C207.68 46.72 207.752 47.096 207.896 47.448C208.048 47.8 208.272 48.088 208.568 48.312C208.872 48.528 209.244 48.636 209.684 48.636C210.052 48.636 210.348 48.572 210.572 48.444C210.796 48.308 210.964 48.156 211.076 47.988C211.188 47.82 211.264 47.672 211.304 47.544C211.344 47.408 211.364 47.34 211.364 47.34H212.468C212.468 47.34 212.452 47.416 212.42 47.568C212.388 47.72 212.32 47.912 212.216 48.144C212.12 48.368 211.968 48.596 211.76 48.828C211.56 49.052 211.292 49.24 210.956 49.392C210.62 49.544 210.196 49.62 209.684 49.62Z" fill="#D8DEE5"></path>
            <path d="M126.271 74.58C125.807 74.58 125.399 74.4947 125.047 74.324C124.695 74.148 124.402 73.916 124.167 73.628C123.938 73.3347 123.765 73.0093 123.647 72.652C123.53 72.2893 123.471 71.9187 123.471 71.54C123.471 71.1613 123.53 70.7907 123.647 70.428C123.765 70.0653 123.938 69.74 124.167 69.452C124.402 69.1587 124.695 68.9267 125.047 68.756C125.399 68.5853 125.807 68.5 126.271 68.5C126.655 68.5 126.983 68.5507 127.255 68.652C127.533 68.748 127.762 68.8733 127.943 69.028C128.13 69.1827 128.279 69.348 128.391 69.524C128.509 69.7 128.594 69.8653 128.647 70.02C128.706 70.1747 128.743 70.3027 128.759 70.404C128.781 70.5 128.791 70.548 128.791 70.548H128.007C128.007 70.548 127.997 70.5053 127.975 70.42C127.954 70.3293 127.911 70.22 127.847 70.092C127.783 69.9587 127.687 69.8253 127.559 69.692C127.431 69.5587 127.263 69.4493 127.055 69.364C126.847 69.2733 126.589 69.228 126.279 69.228C125.943 69.228 125.65 69.2947 125.399 69.428C125.149 69.556 124.938 69.732 124.767 69.956C124.602 70.1747 124.477 70.4227 124.391 70.7C124.311 70.972 124.271 71.252 124.271 71.54C124.271 71.828 124.311 72.1107 124.391 72.388C124.477 72.66 124.602 72.908 124.767 73.132C124.938 73.3507 125.149 73.5267 125.399 73.66C125.65 73.788 125.943 73.852 126.279 73.852C126.589 73.852 126.847 73.8067 127.055 73.716C127.263 73.6253 127.431 73.516 127.559 73.388C127.687 73.2547 127.783 73.124 127.847 72.996C127.911 72.8627 127.954 72.7507 127.975 72.66C127.997 72.5693 128.007 72.524 128.007 72.524H128.791C128.791 72.524 128.781 72.5747 128.759 72.676C128.743 72.772 128.706 72.9 128.647 73.06C128.594 73.2147 128.509 73.38 128.391 73.556C128.279 73.7267 128.13 73.892 127.943 74.052C127.762 74.2067 127.533 74.3347 127.255 74.436C126.983 74.532 126.655 74.58 126.271 74.58ZM131.802 74.58C131.349 74.58 130.968 74.476 130.658 74.268C130.349 74.0547 130.114 73.78 129.954 73.444C129.794 73.108 129.714 72.7533 129.714 72.38C129.714 72.0013 129.794 71.6467 129.954 71.316C130.114 70.98 130.349 70.708 130.658 70.5C130.968 70.2867 131.349 70.18 131.802 70.18C132.256 70.18 132.637 70.2867 132.946 70.5C133.256 70.708 133.49 70.98 133.65 71.316C133.81 71.6467 133.89 72.0013 133.89 72.38C133.89 72.7533 133.81 73.108 133.65 73.444C133.49 73.78 133.256 74.0547 132.946 74.268C132.637 74.476 132.256 74.58 131.802 74.58ZM131.802 73.916C132.09 73.916 132.33 73.844 132.522 73.7C132.72 73.5507 132.866 73.3587 132.962 73.124C133.064 72.8893 133.114 72.6413 133.114 72.38C133.114 72.1133 133.064 71.8653 132.962 71.636C132.866 71.4013 132.72 71.212 132.522 71.068C132.33 70.9187 132.09 70.844 131.802 70.844C131.52 70.844 131.28 70.9187 131.082 71.068C130.885 71.212 130.736 71.4013 130.634 71.636C130.538 71.8653 130.49 72.1133 130.49 72.38C130.49 72.6413 130.538 72.8893 130.634 73.124C130.736 73.3587 130.885 73.5507 131.082 73.7C131.28 73.844 131.52 73.916 131.802 73.916ZM135.007 76.068V70.26H135.767V70.932H135.815C135.879 70.8307 135.965 70.7213 136.071 70.604C136.183 70.4867 136.33 70.388 136.511 70.308C136.693 70.2227 136.917 70.18 137.183 70.18C137.503 70.18 137.783 70.244 138.023 70.372C138.263 70.4947 138.463 70.6627 138.623 70.876C138.783 71.084 138.903 71.3187 138.983 71.58C139.063 71.8413 139.103 72.108 139.103 72.38C139.103 72.652 139.063 72.9187 138.983 73.18C138.903 73.4413 138.783 73.6787 138.623 73.892C138.463 74.1 138.263 74.268 138.023 74.396C137.783 74.5187 137.503 74.58 137.183 74.58C136.917 74.58 136.693 74.5373 136.511 74.452C136.33 74.3667 136.183 74.2653 136.071 74.148C135.965 74.0307 135.879 73.924 135.815 73.828H135.767V76.068H135.007ZM135.783 72.38C135.783 72.636 135.829 72.884 135.919 73.124C136.015 73.3587 136.157 73.5533 136.343 73.708C136.535 73.8573 136.773 73.932 137.055 73.932C137.343 73.932 137.581 73.8573 137.767 73.708C137.959 73.5533 138.101 73.3587 138.191 73.124C138.287 72.884 138.335 72.636 138.335 72.38C138.335 72.1187 138.287 71.8707 138.191 71.636C138.101 71.4013 137.959 71.2093 137.767 71.06C137.581 70.9053 137.343 70.828 137.055 70.828C136.773 70.828 136.535 70.9053 136.343 71.06C136.157 71.2093 136.015 71.4013 135.919 71.636C135.829 71.8707 135.783 72.1187 135.783 72.38ZM140.025 76.06C139.902 76.06 139.798 76.0547 139.713 76.044C139.627 76.0333 139.585 76.028 139.585 76.028V75.38C139.585 75.38 139.627 75.3827 139.713 75.388C139.803 75.3987 139.899 75.404 140.001 75.404C140.315 75.404 140.571 75.3373 140.769 75.204C140.971 75.076 141.142 74.8627 141.281 74.564L139.641 70.26H140.433L141.657 73.572L142.889 70.26H143.689L142.049 74.508C141.841 75.0413 141.571 75.4333 141.241 75.684C140.915 75.9347 140.51 76.06 140.025 76.06Z" fill="white"></path>
          </svg>