<svg width="232" height="188" viewBox="0 0 232 188" fill="none" xmlns="http://www.w3.org/2000/svg">
            <rect x="1" y="1.5" width="230" height="185" rx="5" fill="white" stroke="#D4DBE3" stroke-width="2"></rect>
            <circle cx="17.5" cy="19" r="3.5" fill="#D8DEE5" stroke="#C6CDD5" stroke-width="0.5"></circle>
            <circle cx="28.5" cy="19" r="3.5" fill="#D8DEE5" stroke="#C6CDD5" stroke-width="0.5"></circle>
            <circle cx="39.5" cy="19" r="3.25" fill="white" stroke="#C6CDD5" stroke-width="0.5"></circle>
            <path d="M15 154.5C15 151.739 17.2386 149.5 20 149.5H65C67.7614 149.5 70 151.739 70 154.5V185.5H15V154.5Z" fill="#F1F3F6"></path>
            <path d="M89 154.5C89 151.739 91.2386 149.5 94 149.5H139C141.761 149.5 144 151.739 144 154.5V185.5H89V154.5Z" fill="#F1F3F6"></path>
            <path d="M163 154.5C163 151.739 165.239 149.5 168 149.5H213C215.761 149.5 218 151.739 218 154.5V185.5H163V154.5Z" fill="#F1F3F6"></path>
            <path d="M218 16.5C218 19.2614 215.761 21.5 213 21.5L168 21.5C165.239 21.5 163 19.2614 163 16.5L163 14.5L218 14.5L218 16.5Z" fill="#F1F3F6"></path>
            <path d="M153 16.5C153 19.2614 150.761 21.5 148 21.5L103 21.5C100.239 21.5 98 19.2614 98 16.5L98 14.5L153 14.5L153 16.5Z" fill="#F1F3F6"></path>
            <rect x="14" y="78.5" width="205" height="22" rx="5" fill="white" stroke="#D8DEE5" stroke-width="2"></rect>
            <path d="M20.7686 94.5V85.38H21.9086V89.064H21.9806C22.0366 88.968 22.1286 88.836 22.2566 88.668C22.3926 88.5 22.5846 88.352 22.8326 88.224C23.0806 88.088 23.3926 88.02 23.7686 88.02C24.2326 88.02 24.6286 88.128 24.9566 88.344C25.2846 88.552 25.5326 88.836 25.7006 89.196C25.8766 89.556 25.9646 89.96 25.9646 90.408V94.5H24.8246V90.48C24.8246 90.056 24.7046 89.704 24.4646 89.424C24.2326 89.144 23.8926 89.004 23.4446 89.004C23.0846 89.004 22.7926 89.096 22.5686 89.28C22.3446 89.456 22.1766 89.692 22.0646 89.988C21.9606 90.276 21.9086 90.584 21.9086 90.912V94.5H20.7686ZM30.1103 94.62C29.4543 94.62 28.9583 94.452 28.6223 94.116C28.2943 93.78 28.1303 93.308 28.1303 92.7V89.076H26.9903V88.14H28.1303V86.544H29.2703V88.14H30.8183V89.076H29.2703V92.7C29.2703 93.02 29.3583 93.256 29.5343 93.408C29.7103 93.552 29.9663 93.624 30.3023 93.624C30.4783 93.624 30.6463 93.612 30.8063 93.588C30.9663 93.564 31.0463 93.552 31.0463 93.552V94.524C31.0463 94.524 30.9543 94.54 30.7703 94.572C30.5863 94.604 30.3663 94.62 30.1103 94.62ZM35.1259 94.62C34.4699 94.62 33.9739 94.452 33.6379 94.116C33.3099 93.78 33.1459 93.308 33.1459 92.7V89.076H32.0059V88.14H33.1459V86.544H34.2859V88.14H35.8339V89.076H34.2859V92.7C34.2859 93.02 34.3739 93.256 34.5499 93.408C34.7259 93.552 34.9819 93.624 35.3179 93.624C35.4939 93.624 35.6619 93.612 35.8219 93.588C35.9819 93.564 36.0619 93.552 36.0619 93.552V94.524C36.0619 94.524 35.9699 94.54 35.7859 94.572C35.6019 94.604 35.3819 94.62 35.1259 94.62ZM37.6788 96.852V88.14H38.8188V89.148H38.8908C38.9868 88.996 39.1148 88.832 39.2748 88.656C39.4428 88.48 39.6628 88.332 39.9348 88.212C40.2068 88.084 40.5428 88.02 40.9428 88.02C41.4228 88.02 41.8428 88.116 42.2028 88.308C42.5628 88.492 42.8628 88.744 43.1028 89.064C43.3428 89.376 43.5228 89.728 43.6428 90.12C43.7628 90.512 43.8228 90.912 43.8228 91.32C43.8228 91.728 43.7628 92.128 43.6428 92.52C43.5228 92.912 43.3428 93.268 43.1028 93.588C42.8628 93.9 42.5628 94.152 42.2028 94.344C41.8428 94.528 41.4228 94.62 40.9428 94.62C40.5428 94.62 40.2068 94.556 39.9348 94.428C39.6628 94.3 39.4428 94.148 39.2748 93.972C39.1148 93.796 38.9868 93.636 38.8908 93.492H38.8188V96.852H37.6788ZM38.8428 91.32C38.8428 91.704 38.9108 92.076 39.0468 92.436C39.1908 92.788 39.4028 93.08 39.6828 93.312C39.9708 93.536 40.3268 93.648 40.7508 93.648C41.1828 93.648 41.5388 93.536 41.8188 93.312C42.1068 93.08 42.3188 92.788 42.4548 92.436C42.5988 92.076 42.6708 91.704 42.6708 91.32C42.6708 90.928 42.5988 90.556 42.4548 90.204C42.3188 89.852 42.1068 89.564 41.8188 89.34C41.5388 89.108 41.1828 88.992 40.7508 88.992C40.3268 88.992 39.9708 89.108 39.6828 89.34C39.4028 89.564 39.1908 89.852 39.0468 90.204C38.9108 90.556 38.8428 90.928 38.8428 91.32ZM47.7149 94.62C47.2269 94.62 46.8229 94.552 46.5029 94.416C46.1909 94.28 45.9429 94.112 45.7589 93.912C45.5749 93.704 45.4389 93.5 45.3509 93.3C45.2629 93.092 45.2069 92.92 45.1829 92.784C45.1589 92.648 45.1469 92.58 45.1469 92.58H46.2989C46.2989 92.58 46.3109 92.636 46.3349 92.748C46.3669 92.852 46.4269 92.976 46.5149 93.12C46.6109 93.256 46.7549 93.38 46.9469 93.492C47.1469 93.596 47.4109 93.648 47.7389 93.648C48.1149 93.648 48.4069 93.56 48.6149 93.384C48.8229 93.2 48.9269 92.976 48.9269 92.712C48.9269 92.48 48.8429 92.296 48.6749 92.16C48.5149 92.024 48.2829 91.92 47.9789 91.848L47.1149 91.644C46.7949 91.564 46.4949 91.456 46.2149 91.32C45.9349 91.184 45.7069 91 45.5309 90.768C45.3629 90.528 45.2789 90.232 45.2789 89.88C45.2789 89.336 45.4829 88.892 45.8909 88.548C46.2989 88.196 46.8309 88.02 47.4869 88.02C47.9269 88.02 48.2909 88.084 48.5789 88.212C48.8669 88.332 49.0949 88.484 49.2629 88.668C49.4389 88.852 49.5669 89.036 49.6469 89.22C49.7349 89.404 49.7909 89.56 49.8149 89.688C49.8389 89.808 49.8509 89.868 49.8509 89.868H48.7469C48.7469 89.868 48.7349 89.824 48.7109 89.736C48.6869 89.64 48.6309 89.536 48.5429 89.424C48.4629 89.304 48.3389 89.2 48.1709 89.112C48.0029 89.016 47.7789 88.968 47.4989 88.968C47.1149 88.968 46.8349 89.056 46.6589 89.232C46.4829 89.408 46.3949 89.6 46.3949 89.808C46.3949 90.008 46.4749 90.172 46.6349 90.3C46.8029 90.42 47.0189 90.512 47.2829 90.576L48.1589 90.78C48.7029 90.908 49.1509 91.12 49.5029 91.416C49.8629 91.704 50.0429 92.12 50.0429 92.664C50.0429 93.016 49.9509 93.344 49.7669 93.648C49.5829 93.944 49.3189 94.18 48.9749 94.356C48.6309 94.532 48.2109 94.62 47.7149 94.62ZM52.3566 89.58C52.1326 89.58 51.9446 89.504 51.7926 89.352C51.6486 89.192 51.5766 89.008 51.5766 88.8C51.5766 88.584 51.6486 88.4 51.7926 88.248C51.9446 88.096 52.1326 88.02 52.3566 88.02C52.5806 88.02 52.7646 88.096 52.9086 88.248C53.0606 88.4 53.1366 88.584 53.1366 88.8C53.1366 89.016 53.0606 89.2 52.9086 89.352C52.7646 89.504 52.5806 89.58 52.3566 89.58ZM52.3566 94.62C52.1326 94.62 51.9446 94.544 51.7926 94.392C51.6486 94.232 51.5766 94.048 51.5766 93.84C51.5766 93.624 51.6486 93.44 51.7926 93.288C51.9446 93.136 52.1326 93.06 52.3566 93.06C52.5806 93.06 52.7646 93.136 52.9086 93.288C53.0606 93.44 53.1366 93.624 53.1366 93.84C53.1366 94.056 53.0606 94.24 52.9086 94.392C52.7646 94.544 52.5806 94.62 52.3566 94.62ZM54.5542 96.312L58.7182 84.612H59.8102L55.6462 96.312H54.5542ZM59.0308 96.312L63.1948 84.612H64.2868L60.1228 96.312H59.0308ZM67.0579 94.5L65.0059 88.14H66.1699L67.6819 92.964L69.2659 88.14H70.3459L71.9179 92.964L73.4419 88.14H74.6059L72.5419 94.5H71.3179L69.8059 89.808L68.2939 94.5H67.0579ZM77.8626 94.5L75.8106 88.14H76.9746L78.4866 92.964L80.0706 88.14H81.1506L82.7226 92.964L84.2466 88.14H85.4106L83.3466 94.5H82.1226L80.6106 89.808L79.0986 94.5H77.8626ZM88.6673 94.5L86.6153 88.14H87.7793L89.2913 92.964L90.8753 88.14H91.9553L93.5273 92.964L95.0513 88.14H96.2153L94.1513 94.5H92.9273L91.4153 89.808L89.9033 94.5H88.6673ZM98.3527 94.62C98.1287 94.62 97.9407 94.544 97.7887 94.392C97.6447 94.232 97.5727 94.048 97.5727 93.84C97.5727 93.624 97.6447 93.44 97.7887 93.288C97.9407 93.136 98.1287 93.06 98.3527 93.06C98.5767 93.06 98.7607 93.136 98.9047 93.288C99.0567 93.44 99.1327 93.624 99.1327 93.84C99.1327 94.056 99.0567 94.24 98.9047 94.392C98.7607 94.544 98.5767 94.62 98.3527 94.62ZM101.15 96.84C100.966 96.84 100.81 96.832 100.682 96.816C100.554 96.8 100.49 96.792 100.49 96.792V95.82C100.49 95.82 100.554 95.824 100.682 95.832C100.818 95.848 100.962 95.856 101.114 95.856C101.586 95.856 101.97 95.756 102.266 95.556C102.57 95.364 102.826 95.044 103.034 94.596L100.574 88.14H101.762L103.598 93.108L105.446 88.14H106.646L104.186 94.512C103.874 95.312 103.47 95.9 102.974 96.276C102.486 96.652 101.878 96.84 101.15 96.84ZM110.497 94.62C109.817 94.62 109.245 94.464 108.781 94.152C108.317 93.832 107.965 93.42 107.725 92.916C107.485 92.412 107.365 91.88 107.365 91.32C107.365 90.752 107.485 90.22 107.725 89.724C107.965 89.22 108.317 88.812 108.781 88.5C109.245 88.18 109.817 88.02 110.497 88.02C111.177 88.02 111.749 88.18 112.213 88.5C112.677 88.812 113.029 89.22 113.269 89.724C113.509 90.22 113.629 90.752 113.629 91.32C113.629 91.88 113.509 92.412 113.269 92.916C113.029 93.42 112.677 93.832 112.213 94.152C111.749 94.464 111.177 94.62 110.497 94.62ZM110.497 93.624C110.929 93.624 111.289 93.516 111.577 93.3C111.873 93.076 112.093 92.788 112.237 92.436C112.389 92.084 112.465 91.712 112.465 91.32C112.465 90.92 112.389 90.548 112.237 90.204C112.093 89.852 111.873 89.568 111.577 89.352C111.289 89.128 110.929 89.016 110.497 89.016C110.073 89.016 109.713 89.128 109.417 89.352C109.121 89.568 108.897 89.852 108.745 90.204C108.601 90.548 108.529 90.92 108.529 91.32C108.529 91.712 108.601 92.084 108.745 92.436C108.897 92.788 109.121 93.076 109.417 93.3C109.713 93.516 110.073 93.624 110.497 93.624ZM117.26 94.62C116.628 94.62 116.124 94.424 115.748 94.032C115.372 93.64 115.184 93.096 115.184 92.4V88.14H116.324V92.34C116.324 92.756 116.436 93.076 116.66 93.3C116.892 93.524 117.196 93.636 117.572 93.636C117.956 93.636 118.264 93.536 118.496 93.336C118.728 93.136 118.896 92.88 119 92.568C119.104 92.256 119.156 91.936 119.156 91.608V88.14H120.296V94.5H119.156V93.588H119.084C119.036 93.684 118.944 93.816 118.808 93.984C118.672 94.144 118.48 94.292 118.232 94.428C117.984 94.556 117.66 94.62 117.26 94.62ZM124.681 94.62C124.025 94.62 123.529 94.452 123.193 94.116C122.865 93.78 122.701 93.308 122.701 92.7V89.076H121.561V88.14H122.701V86.544H123.841V88.14H125.389V89.076H123.841V92.7C123.841 93.02 123.929 93.256 124.105 93.408C124.281 93.552 124.537 93.624 124.873 93.624C125.049 93.624 125.217 93.612 125.377 93.588C125.537 93.564 125.617 93.552 125.617 93.552V94.524C125.617 94.524 125.525 94.54 125.341 94.572C125.157 94.604 124.937 94.62 124.681 94.62ZM129.189 94.62C128.557 94.62 128.053 94.424 127.677 94.032C127.301 93.64 127.113 93.096 127.113 92.4V88.14H128.253V92.34C128.253 92.756 128.365 93.076 128.589 93.3C128.821 93.524 129.125 93.636 129.501 93.636C129.885 93.636 130.193 93.536 130.425 93.336C130.657 93.136 130.825 92.88 130.929 92.568C131.033 92.256 131.085 91.936 131.085 91.608V88.14H132.225V94.5H131.085V93.588H131.013C130.965 93.684 130.873 93.816 130.737 93.984C130.601 94.144 130.409 94.292 130.161 94.428C129.913 94.556 129.589 94.62 129.189 94.62ZM137.294 94.62C136.894 94.62 136.558 94.556 136.286 94.428C136.014 94.3 135.794 94.148 135.626 93.972C135.466 93.796 135.338 93.636 135.242 93.492H135.17V94.5H134.03V85.38H135.17V89.148H135.242C135.338 88.996 135.466 88.832 135.626 88.656C135.794 88.48 136.014 88.332 136.286 88.212C136.558 88.084 136.894 88.02 137.294 88.02C137.774 88.02 138.194 88.116 138.554 88.308C138.914 88.492 139.214 88.744 139.454 89.064C139.694 89.376 139.874 89.728 139.994 90.12C140.114 90.512 140.174 90.912 140.174 91.32C140.174 91.728 140.114 92.128 139.994 92.52C139.874 92.912 139.694 93.268 139.454 93.588C139.214 93.9 138.914 94.152 138.554 94.344C138.194 94.528 137.774 94.62 137.294 94.62ZM137.102 93.648C137.534 93.648 137.89 93.536 138.17 93.312C138.458 93.08 138.67 92.788 138.806 92.436C138.95 92.076 139.022 91.704 139.022 91.32C139.022 90.928 138.95 90.556 138.806 90.204C138.67 89.852 138.458 89.564 138.17 89.34C137.89 89.108 137.534 88.992 137.102 88.992C136.678 88.992 136.322 89.108 136.034 89.34C135.754 89.564 135.542 89.852 135.398 90.204C135.262 90.556 135.194 90.928 135.194 91.32C135.194 91.704 135.262 92.076 135.398 92.436C135.542 92.788 135.754 93.08 136.034 93.312C136.322 93.536 136.678 93.648 137.102 93.648ZM144.572 94.62C144.052 94.62 143.6 94.528 143.216 94.344C142.84 94.152 142.528 93.896 142.28 93.576C142.04 93.256 141.86 92.904 141.74 92.52C141.62 92.128 141.56 91.728 141.56 91.32C141.56 90.92 141.616 90.524 141.728 90.132C141.848 89.74 142.028 89.384 142.268 89.064C142.516 88.744 142.824 88.492 143.192 88.308C143.568 88.116 144.012 88.02 144.524 88.02C145.068 88.02 145.548 88.144 145.964 88.392C146.38 88.64 146.708 89.008 146.948 89.496C147.188 89.984 147.308 90.596 147.308 91.332V91.668H142.712C142.736 92.028 142.82 92.36 142.964 92.664C143.116 92.96 143.328 93.2 143.6 93.384C143.872 93.56 144.196 93.648 144.572 93.648C144.9 93.648 145.164 93.596 145.364 93.492C145.572 93.38 145.736 93.252 145.856 93.108C145.976 92.964 146.056 92.84 146.096 92.736C146.144 92.624 146.168 92.568 146.168 92.568H147.236C147.236 92.568 147.216 92.64 147.176 92.784C147.136 92.92 147.064 93.088 146.96 93.288C146.856 93.488 146.704 93.692 146.504 93.9C146.304 94.1 146.048 94.272 145.736 94.416C145.424 94.552 145.036 94.62 144.572 94.62ZM142.724 90.78H146.192C146.176 90.364 146.088 90.028 145.928 89.772C145.768 89.508 145.564 89.312 145.316 89.184C145.068 89.056 144.804 88.992 144.524 88.992C144.02 88.992 143.608 89.156 143.288 89.484C142.968 89.804 142.78 90.236 142.724 90.78ZM149.739 94.62C149.515 94.62 149.327 94.544 149.175 94.392C149.031 94.232 148.959 94.048 148.959 93.84C148.959 93.624 149.031 93.44 149.175 93.288C149.327 93.136 149.515 93.06 149.739 93.06C149.963 93.06 150.147 93.136 150.291 93.288C150.443 93.44 150.519 93.624 150.519 93.84C150.519 94.056 150.443 94.24 150.291 94.392C150.147 94.544 149.963 94.62 149.739 94.62ZM155.309 94.62C154.789 94.62 154.333 94.528 153.941 94.344C153.549 94.152 153.221 93.9 152.957 93.588C152.701 93.268 152.505 92.912 152.369 92.52C152.241 92.128 152.177 91.728 152.177 91.32C152.177 90.912 152.241 90.516 152.369 90.132C152.497 89.74 152.689 89.384 152.945 89.064C153.209 88.744 153.537 88.492 153.929 88.308C154.321 88.116 154.781 88.02 155.309 88.02C155.821 88.02 156.245 88.096 156.581 88.248C156.917 88.4 157.185 88.592 157.385 88.824C157.593 89.048 157.745 89.276 157.841 89.508C157.945 89.732 158.013 89.92 158.045 90.072C158.077 90.224 158.093 90.3 158.093 90.3H156.989C156.989 90.3 156.969 90.236 156.929 90.108C156.889 89.972 156.813 89.82 156.701 89.652C156.589 89.484 156.421 89.336 156.197 89.208C155.973 89.072 155.677 89.004 155.309 89.004C154.869 89.004 154.497 89.116 154.193 89.34C153.897 89.556 153.673 89.84 153.521 90.192C153.377 90.544 153.305 90.92 153.305 91.32C153.305 91.72 153.377 92.096 153.521 92.448C153.673 92.8 153.897 93.088 154.193 93.312C154.497 93.528 154.869 93.636 155.309 93.636C155.677 93.636 155.973 93.572 156.197 93.444C156.421 93.308 156.589 93.156 156.701 92.988C156.813 92.82 156.889 92.672 156.929 92.544C156.969 92.408 156.989 92.34 156.989 92.34H158.093C158.093 92.34 158.077 92.416 158.045 92.568C158.013 92.72 157.945 92.912 157.841 93.144C157.745 93.368 157.593 93.596 157.385 93.828C157.185 94.052 156.917 94.24 156.581 94.392C156.245 94.544 155.821 94.62 155.309 94.62ZM162.668 94.62C161.988 94.62 161.416 94.464 160.952 94.152C160.488 93.832 160.136 93.42 159.896 92.916C159.656 92.412 159.536 91.88 159.536 91.32C159.536 90.752 159.656 90.22 159.896 89.724C160.136 89.22 160.488 88.812 160.952 88.5C161.416 88.18 161.988 88.02 162.668 88.02C163.348 88.02 163.92 88.18 164.384 88.5C164.848 88.812 165.2 89.22 165.44 89.724C165.68 90.22 165.8 90.752 165.8 91.32C165.8 91.88 165.68 92.412 165.44 92.916C165.2 93.42 164.848 93.832 164.384 94.152C163.92 94.464 163.348 94.62 162.668 94.62ZM162.668 93.624C163.1 93.624 163.46 93.516 163.748 93.3C164.044 93.076 164.264 92.788 164.408 92.436C164.56 92.084 164.636 91.712 164.636 91.32C164.636 90.92 164.56 90.548 164.408 90.204C164.264 89.852 164.044 89.568 163.748 89.352C163.46 89.128 163.1 89.016 162.668 89.016C162.244 89.016 161.884 89.128 161.588 89.352C161.292 89.568 161.068 89.852 160.916 90.204C160.772 90.548 160.7 90.92 160.7 91.32C160.7 91.712 160.772 92.084 160.916 92.436C161.068 92.788 161.292 93.076 161.588 93.3C161.884 93.516 162.244 93.624 162.668 93.624ZM167.356 94.5V88.14H168.496V89.064H168.544C168.608 88.944 168.708 88.804 168.844 88.644C168.98 88.476 169.164 88.332 169.396 88.212C169.636 88.084 169.936 88.02 170.296 88.02C170.768 88.02 171.164 88.136 171.484 88.368C171.812 88.592 172.056 88.896 172.216 89.28H172.228C172.404 88.928 172.652 88.632 172.972 88.392C173.3 88.144 173.724 88.02 174.244 88.02C174.932 88.02 175.46 88.256 175.828 88.728C176.204 89.192 176.392 89.792 176.392 90.528V94.5H175.252V90.588C175.252 90.116 175.14 89.736 174.916 89.448C174.692 89.152 174.368 89.004 173.944 89.004C173.576 89.004 173.28 89.104 173.056 89.304C172.84 89.504 172.684 89.752 172.588 90.048C172.492 90.344 172.444 90.64 172.444 90.936V94.5H171.304V90.588C171.304 90.116 171.192 89.736 170.968 89.448C170.752 89.152 170.428 89.004 169.996 89.004C169.628 89.004 169.332 89.104 169.108 89.304C168.892 89.504 168.736 89.756 168.64 90.06C168.544 90.356 168.496 90.648 168.496 90.936V94.5H167.356ZM177.707 96.312L181.871 84.612H182.963L178.799 96.312H177.707ZM185.734 94.5L183.682 88.14H184.846L186.358 92.964L187.942 88.14H189.022L190.594 92.964L192.118 88.14H193.282L191.218 94.5H189.994L188.482 89.808L186.97 94.5H185.734ZM197.069 88.02C197.469 88.02 197.805 88.084 198.077 88.212C198.349 88.34 198.569 88.492 198.737 88.668C198.905 88.836 199.033 88.996 199.121 89.148H199.193V88.14H200.333V94.5H199.193V93.492H199.121C199.033 93.644 198.905 93.808 198.737 93.984C198.569 94.16 198.349 94.312 198.077 94.44C197.805 94.56 197.469 94.62 197.069 94.62C196.589 94.62 196.169 94.528 195.809 94.344C195.449 94.152 195.149 93.9 194.909 93.588C194.669 93.268 194.489 92.912 194.369 92.52C194.249 92.128 194.189 91.728 194.189 91.32C194.189 90.912 194.249 90.512 194.369 90.12C194.489 89.728 194.669 89.376 194.909 89.064C195.149 88.744 195.449 88.492 195.809 88.308C196.169 88.116 196.589 88.02 197.069 88.02ZM197.261 88.992C196.837 88.992 196.481 89.108 196.193 89.34C195.905 89.564 195.689 89.852 195.545 90.204C195.409 90.556 195.341 90.928 195.341 91.32C195.341 91.704 195.409 92.076 195.545 92.436C195.689 92.788 195.905 93.08 196.193 93.312C196.481 93.536 196.837 93.648 197.261 93.648C197.685 93.648 198.037 93.536 198.317 93.312C198.605 93.08 198.817 92.788 198.953 92.436C199.097 92.076 199.169 91.704 199.169 91.32C199.169 90.928 199.097 90.556 198.953 90.204C198.817 89.852 198.605 89.564 198.317 89.34C198.037 89.108 197.685 88.992 197.261 88.992ZM204.474 94.62C203.818 94.62 203.322 94.452 202.986 94.116C202.658 93.78 202.494 93.308 202.494 92.7V89.076H201.354V88.14H202.494V86.544H203.634V88.14H205.182V89.076H203.634V92.7C203.634 93.02 203.722 93.256 203.898 93.408C204.074 93.552 204.33 93.624 204.666 93.624C204.842 93.624 205.01 93.612 205.17 93.588C205.33 93.564 205.41 93.552 205.41 93.552V94.524C205.41 94.524 205.318 94.54 205.134 94.572C204.95 94.604 204.73 94.62 204.474 94.62ZM209.684 94.62C209.164 94.62 208.708 94.528 208.316 94.344C207.924 94.152 207.596 93.9 207.332 93.588C207.076 93.268 206.88 92.912 206.744 92.52C206.616 92.128 206.552 91.728 206.552 91.32C206.552 90.912 206.616 90.516 206.744 90.132C206.872 89.74 207.064 89.384 207.32 89.064C207.584 88.744 207.912 88.492 208.304 88.308C208.696 88.116 209.156 88.02 209.684 88.02C210.196 88.02 210.62 88.096 210.956 88.248C211.292 88.4 211.56 88.592 211.76 88.824C211.968 89.048 212.12 89.276 212.216 89.508C212.32 89.732 212.388 89.92 212.42 90.072C212.452 90.224 212.468 90.3 212.468 90.3H211.364C211.364 90.3 211.344 90.236 211.304 90.108C211.264 89.972 211.188 89.82 211.076 89.652C210.964 89.484 210.796 89.336 210.572 89.208C210.348 89.072 210.052 89.004 209.684 89.004C209.244 89.004 208.872 89.116 208.568 89.34C208.272 89.556 208.048 89.84 207.896 90.192C207.752 90.544 207.68 90.92 207.68 91.32C207.68 91.72 207.752 92.096 207.896 92.448C208.048 92.8 208.272 93.088 208.568 93.312C208.872 93.528 209.244 93.636 209.684 93.636C210.052 93.636 210.348 93.572 210.572 93.444C210.796 93.308 210.964 93.156 211.076 92.988C211.188 92.82 211.264 92.672 211.304 92.544C211.344 92.408 211.364 92.34 211.364 92.34H212.468C212.468 92.34 212.452 92.416 212.42 92.568C212.388 92.72 212.32 92.912 212.216 93.144C212.12 93.368 211.968 93.596 211.76 93.828C211.56 94.052 211.292 94.24 210.956 94.392C210.62 94.544 210.196 94.62 209.684 94.62Z" fill="#D8DEE5"></path>
            <path d="M70.5207 65.62C69.7927 65.62 69.1527 65.492 68.6007 65.236C68.0487 64.972 67.5847 64.624 67.2087 64.192C66.8407 63.752 66.5607 63.26 66.3687 62.716C66.1847 62.172 66.0927 61.616 66.0927 61.048C66.0927 60.48 66.1847 59.928 66.3687 59.392C66.5607 58.848 66.8407 58.36 67.2087 57.928C67.5847 57.496 68.0487 57.152 68.6007 56.896C69.1527 56.632 69.7927 56.5 70.5207 56.5C71.2487 56.5 71.8887 56.632 72.4407 56.896C72.9927 57.152 73.4527 57.496 73.8207 57.928C74.1967 58.36 74.4767 58.848 74.6607 59.392C74.8527 59.928 74.9487 60.48 74.9487 61.048C74.9487 61.616 74.8527 62.172 74.6607 62.716C74.4767 63.26 74.1967 63.752 73.8207 64.192C73.4527 64.624 72.9927 64.972 72.4407 65.236C71.8887 65.492 71.2487 65.62 70.5207 65.62ZM70.5207 64.144C71.1207 64.144 71.6207 63.996 72.0207 63.7C72.4287 63.404 72.7367 63.02 72.9447 62.548C73.1607 62.076 73.2687 61.576 73.2687 61.048C73.2687 60.528 73.1607 60.036 72.9447 59.572C72.7367 59.1 72.4287 58.716 72.0207 58.42C71.6207 58.124 71.1207 57.976 70.5207 57.976C69.9207 57.976 69.4167 58.124 69.0087 58.42C68.6007 58.716 68.2927 59.1 68.0847 59.572C67.8767 60.036 67.7727 60.528 67.7727 61.048C67.7727 61.576 67.8767 62.076 68.0847 62.548C68.2927 63.02 68.6007 63.404 69.0087 63.7C69.4167 63.996 69.9207 64.144 70.5207 64.144ZM75.6342 65.5V59.14H77.2182V60.016H77.2782C77.3902 59.768 77.5742 59.54 77.8302 59.332C78.0862 59.124 78.4702 59.02 78.9822 59.02C79.1422 59.02 79.2742 59.032 79.3782 59.056C79.4822 59.072 79.5342 59.08 79.5342 59.08V60.628C79.5342 60.628 79.4742 60.62 79.3542 60.604C79.2422 60.588 79.1022 60.58 78.9342 60.58C78.3742 60.58 77.9502 60.736 77.6622 61.048C77.3742 61.36 77.2302 61.864 77.2302 62.56V65.5H75.6342ZM82.8546 65.62C82.1586 65.62 81.5666 65.464 81.0786 65.152C80.5906 64.84 80.2186 64.436 79.9626 63.94C79.7146 63.436 79.5906 62.896 79.5906 62.32C79.5906 61.744 79.7146 61.208 79.9626 60.712C80.2186 60.208 80.5906 59.8 81.0786 59.488C81.5666 59.176 82.1586 59.02 82.8546 59.02C83.5586 59.02 84.1506 59.176 84.6306 59.488C85.1186 59.8 85.4866 60.208 85.7346 60.712C85.9906 61.208 86.1186 61.744 86.1186 62.32C86.1186 62.896 85.9906 63.436 85.7346 63.94C85.4866 64.436 85.1186 64.84 84.6306 65.152C84.1506 65.464 83.5586 65.62 82.8546 65.62ZM82.8546 64.288C83.2146 64.288 83.5146 64.196 83.7546 64.012C84.0026 63.828 84.1906 63.588 84.3186 63.292C84.4466 62.988 84.5106 62.664 84.5106 62.32C84.5106 61.968 84.4466 61.644 84.3186 61.348C84.1906 61.052 84.0026 60.812 83.7546 60.628C83.5146 60.444 83.2146 60.352 82.8546 60.352C82.5026 60.352 82.2026 60.444 81.9546 60.628C81.7066 60.812 81.5186 61.052 81.3906 61.348C81.2626 61.644 81.1986 61.968 81.1986 62.32C81.1986 62.664 81.2626 62.988 81.3906 63.292C81.5186 63.588 81.7066 63.828 81.9546 64.012C82.2026 64.196 82.5026 64.288 82.8546 64.288ZM86.9147 65.5V59.14H88.4987V60.016H88.5587C88.6707 59.768 88.8547 59.54 89.1107 59.332C89.3667 59.124 89.7507 59.02 90.2627 59.02C90.4227 59.02 90.5547 59.032 90.6587 59.056C90.7627 59.072 90.8147 59.08 90.8147 59.08V60.628C90.8147 60.628 90.7547 60.62 90.6347 60.604C90.5227 60.588 90.3827 60.58 90.2147 60.58C89.6547 60.58 89.2307 60.736 88.9427 61.048C88.6547 61.36 88.5107 61.864 88.5107 62.56V65.5H86.9147ZM93.691 59.02C94.099 59.02 94.435 59.088 94.699 59.224C94.963 59.352 95.171 59.496 95.323 59.656C95.475 59.808 95.579 59.932 95.635 60.028H95.707V59.14H97.303V65.5H95.707V64.612H95.635C95.579 64.708 95.475 64.836 95.323 64.996C95.171 65.156 94.963 65.3 94.699 65.428C94.435 65.556 94.099 65.62 93.691 65.62C93.219 65.62 92.807 65.528 92.455 65.344C92.103 65.152 91.807 64.9 91.567 64.588C91.335 64.268 91.159 63.912 91.039 63.52C90.927 63.128 90.871 62.728 90.871 62.32C90.871 61.912 90.927 61.512 91.039 61.12C91.159 60.728 91.335 60.376 91.567 60.064C91.807 59.744 92.103 59.492 92.455 59.308C92.807 59.116 93.219 59.02 93.691 59.02ZM94.111 60.328C93.751 60.328 93.447 60.428 93.199 60.628C92.959 60.82 92.779 61.068 92.659 61.372C92.539 61.676 92.479 61.992 92.479 62.32C92.479 62.648 92.539 62.964 92.659 63.268C92.779 63.572 92.959 63.824 93.199 64.024C93.447 64.216 93.751 64.312 94.111 64.312C94.471 64.312 94.771 64.216 95.011 64.024C95.251 63.824 95.431 63.572 95.551 63.268C95.671 62.964 95.731 62.648 95.731 62.32C95.731 61.992 95.671 61.676 95.551 61.372C95.431 61.068 95.251 60.82 95.011 60.628C94.771 60.428 94.471 60.328 94.111 60.328ZM100.481 65.5V56.62H103.673C104.393 56.62 105.021 56.748 105.557 57.004C106.101 57.252 106.553 57.588 106.913 58.012C107.273 58.436 107.541 58.912 107.717 59.44C107.901 59.968 107.993 60.508 107.993 61.06C107.993 61.612 107.901 62.152 107.717 62.68C107.541 63.208 107.273 63.684 106.913 64.108C106.553 64.532 106.101 64.872 105.557 65.128C105.021 65.376 104.393 65.5 103.673 65.5H100.481ZM103.601 58.048H102.113V64.06H103.601C104.225 64.06 104.741 63.916 105.149 63.628C105.557 63.332 105.861 62.956 106.061 62.5C106.261 62.036 106.361 61.552 106.361 61.048C106.361 60.552 106.261 60.076 106.061 59.62C105.861 59.156 105.557 58.78 105.149 58.492C104.741 58.196 104.225 58.048 103.601 58.048ZM111.847 65.62C111.151 65.62 110.559 65.464 110.071 65.152C109.583 64.84 109.211 64.436 108.955 63.94C108.707 63.436 108.583 62.896 108.583 62.32C108.583 61.744 108.707 61.208 108.955 60.712C109.211 60.208 109.583 59.8 110.071 59.488C110.559 59.176 111.151 59.02 111.847 59.02C112.551 59.02 113.143 59.176 113.623 59.488C114.111 59.8 114.479 60.208 114.727 60.712C114.983 61.208 115.111 61.744 115.111 62.32C115.111 62.896 114.983 63.436 114.727 63.94C114.479 64.436 114.111 64.84 113.623 65.152C113.143 65.464 112.551 65.62 111.847 65.62ZM111.847 64.288C112.207 64.288 112.507 64.196 112.747 64.012C112.995 63.828 113.183 63.588 113.311 63.292C113.439 62.988 113.503 62.664 113.503 62.32C113.503 61.968 113.439 61.644 113.311 61.348C113.183 61.052 112.995 60.812 112.747 60.628C112.507 60.444 112.207 60.352 111.847 60.352C111.495 60.352 111.195 60.444 110.947 60.628C110.699 60.812 110.511 61.052 110.383 61.348C110.255 61.644 110.191 61.968 110.191 62.32C110.191 62.664 110.255 62.988 110.383 63.292C110.511 63.588 110.699 63.828 110.947 64.012C111.195 64.196 111.495 64.288 111.847 64.288ZM117.186 65.5L115.194 59.14H116.79L118.062 63.508L119.418 59.14H120.87L122.226 63.508L123.498 59.14H125.094L123.09 65.5H121.398L120.15 61.456L118.89 65.5H117.186ZM125.561 65.5V59.14H127.157V60.052H127.229C127.293 59.94 127.393 59.804 127.529 59.644C127.665 59.476 127.853 59.332 128.093 59.212C128.333 59.084 128.637 59.02 129.005 59.02C129.493 59.02 129.893 59.132 130.205 59.356C130.525 59.572 130.761 59.86 130.913 60.22C131.073 60.58 131.153 60.968 131.153 61.384V65.5H129.557V61.6C129.557 61.256 129.461 60.96 129.269 60.712C129.077 60.464 128.789 60.34 128.405 60.34C128.109 60.34 127.869 60.416 127.685 60.568C127.501 60.712 127.365 60.9 127.277 61.132C127.197 61.364 127.157 61.608 127.157 61.864V65.5H125.561ZM132.159 65.5L132.171 56.38H133.755V65.5H132.159ZM137.888 65.62C137.192 65.62 136.6 65.464 136.112 65.152C135.624 64.84 135.252 64.436 134.996 63.94C134.748 63.436 134.624 62.896 134.624 62.32C134.624 61.744 134.748 61.208 134.996 60.712C135.252 60.208 135.624 59.8 136.112 59.488C136.6 59.176 137.192 59.02 137.888 59.02C138.592 59.02 139.184 59.176 139.664 59.488C140.152 59.8 140.52 60.208 140.768 60.712C141.024 61.208 141.152 61.744 141.152 62.32C141.152 62.896 141.024 63.436 140.768 63.94C140.52 64.436 140.152 64.84 139.664 65.152C139.184 65.464 138.592 65.62 137.888 65.62ZM137.888 64.288C138.248 64.288 138.548 64.196 138.788 64.012C139.036 63.828 139.224 63.588 139.352 63.292C139.48 62.988 139.544 62.664 139.544 62.32C139.544 61.968 139.48 61.644 139.352 61.348C139.224 61.052 139.036 60.812 138.788 60.628C138.548 60.444 138.248 60.352 137.888 60.352C137.536 60.352 137.236 60.444 136.988 60.628C136.74 60.812 136.552 61.052 136.424 61.348C136.296 61.644 136.232 61.968 136.232 62.32C136.232 62.664 136.296 62.988 136.424 63.292C136.552 63.588 136.74 63.828 136.988 64.012C137.236 64.196 137.536 64.288 137.888 64.288ZM144.614 59.02C145.022 59.02 145.358 59.088 145.622 59.224C145.886 59.352 146.094 59.496 146.246 59.656C146.398 59.808 146.502 59.932 146.558 60.028H146.63V59.14H148.226V65.5H146.63V64.612H146.558C146.502 64.708 146.398 64.836 146.246 64.996C146.094 65.156 145.886 65.3 145.622 65.428C145.358 65.556 145.022 65.62 144.614 65.62C144.142 65.62 143.73 65.528 143.378 65.344C143.026 65.152 142.73 64.9 142.49 64.588C142.258 64.268 142.082 63.912 141.962 63.52C141.85 63.128 141.794 62.728 141.794 62.32C141.794 61.912 141.85 61.512 141.962 61.12C142.082 60.728 142.258 60.376 142.49 60.064C142.73 59.744 143.026 59.492 143.378 59.308C143.73 59.116 144.142 59.02 144.614 59.02ZM145.034 60.328C144.674 60.328 144.37 60.428 144.122 60.628C143.882 60.82 143.702 61.068 143.582 61.372C143.462 61.676 143.402 61.992 143.402 62.32C143.402 62.648 143.462 62.964 143.582 63.268C143.702 63.572 143.882 63.824 144.122 64.024C144.37 64.216 144.674 64.312 145.034 64.312C145.394 64.312 145.694 64.216 145.934 64.024C146.174 63.824 146.354 63.572 146.474 63.268C146.594 62.964 146.654 62.648 146.654 62.32C146.654 61.992 146.594 61.676 146.474 61.372C146.354 61.068 146.174 60.82 145.934 60.628C145.694 60.428 145.394 60.328 145.034 60.328ZM151.889 65.62C151.417 65.62 151.005 65.528 150.653 65.344C150.301 65.152 150.005 64.9 149.765 64.588C149.533 64.268 149.357 63.912 149.237 63.52C149.125 63.128 149.069 62.728 149.069 62.32C149.069 61.912 149.125 61.512 149.237 61.12C149.357 60.728 149.533 60.376 149.765 60.064C150.005 59.744 150.301 59.492 150.653 59.308C151.005 59.116 151.417 59.02 151.889 59.02C152.297 59.02 152.633 59.088 152.897 59.224C153.161 59.352 153.369 59.496 153.521 59.656C153.673 59.808 153.777 59.932 153.833 60.028H153.905V56.38H155.501V65.5H153.905V64.612H153.833C153.777 64.708 153.673 64.836 153.521 64.996C153.369 65.156 153.161 65.3 152.897 65.428C152.633 65.556 152.297 65.62 151.889 65.62ZM152.309 64.312C152.669 64.312 152.969 64.216 153.209 64.024C153.449 63.824 153.629 63.572 153.749 63.268C153.869 62.964 153.929 62.648 153.929 62.32C153.929 61.992 153.869 61.676 153.749 61.372C153.629 61.068 153.449 60.82 153.209 60.628C152.969 60.428 152.669 60.328 152.309 60.328C151.949 60.328 151.645 60.428 151.397 60.628C151.157 60.82 150.977 61.068 150.857 61.372C150.737 61.676 150.677 61.992 150.677 62.32C150.677 62.648 150.737 62.964 150.857 63.268C150.977 63.572 151.157 63.824 151.397 64.024C151.645 64.216 151.949 64.312 152.309 64.312ZM159.535 65.62C158.991 65.62 158.519 65.528 158.119 65.344C157.727 65.152 157.399 64.9 157.135 64.588C156.879 64.268 156.687 63.912 156.559 63.52C156.431 63.128 156.367 62.728 156.367 62.32C156.367 61.912 156.427 61.516 156.547 61.132C156.675 60.74 156.863 60.384 157.111 60.064C157.367 59.744 157.691 59.492 158.083 59.308C158.475 59.116 158.939 59.02 159.475 59.02C160.051 59.02 160.559 59.148 160.999 59.404C161.439 59.66 161.783 60.036 162.031 60.532C162.279 61.02 162.403 61.628 162.403 62.356V62.764H157.975C157.999 63.196 158.147 63.572 158.419 63.892C158.691 64.204 159.063 64.36 159.535 64.36C159.807 64.36 160.031 64.316 160.207 64.228C160.383 64.14 160.519 64.04 160.615 63.928C160.711 63.808 160.779 63.708 160.819 63.628C160.859 63.54 160.879 63.496 160.879 63.496H162.355C162.355 63.496 162.335 63.568 162.295 63.712C162.255 63.848 162.179 64.024 162.067 64.24C161.963 64.448 161.807 64.66 161.599 64.876C161.391 65.084 161.119 65.26 160.783 65.404C160.447 65.548 160.031 65.62 159.535 65.62ZM157.975 61.72H160.867C160.843 61.224 160.695 60.856 160.423 60.616C160.151 60.376 159.831 60.256 159.463 60.256C159.055 60.256 158.715 60.388 158.443 60.652C158.171 60.908 158.015 61.264 157.975 61.72ZM163.199 65.5V59.14H164.783V60.016H164.843C164.955 59.768 165.139 59.54 165.395 59.332C165.651 59.124 166.035 59.02 166.547 59.02C166.707 59.02 166.839 59.032 166.943 59.056C167.047 59.072 167.099 59.08 167.099 59.08V60.628C167.099 60.628 167.039 60.62 166.919 60.604C166.807 60.588 166.667 60.58 166.499 60.58C165.939 60.58 165.515 60.736 165.227 61.048C164.939 61.36 164.795 61.864 164.795 62.56V65.5H163.199Z" fill="#518BE0"></path>
            <rect x="181" y="78.5" width="38" height="22" rx="5" fill="#518BE0" stroke="#518BE0" stroke-width="2"></rect>
            <path d="M187.182 98.6757L190.209 98.785L213.647 110.76L215.257 113.225L207.376 115.766L208.168 118.223L209.637 118.563L212.875 121.86L214.143 125.791L210.202 127.062L203.726 120.469L201.755 121.104L199.082 126.307L196.694 127.755L187.182 98.6757Z" fill="white"></path>
            <path d="M213.647 110.76L215.617 110.124L216.885 114.056L209.003 116.597L209.637 118.563L207.667 119.198L206.399 115.267L214.281 112.725L213.647 110.76ZM213.647 110.76L213.013 108.794L211.043 109.429L211.676 111.395L213.647 110.76ZM211.043 109.429L210.409 107.463L208.438 108.099L209.072 110.064L211.043 109.429ZM208.438 108.099L207.804 106.133L205.834 106.768L206.468 108.734L208.438 108.099ZM205.834 106.768L205.2 104.802L203.23 105.437L203.864 107.403L205.834 106.768ZM203.23 105.437L202.596 103.472L200.626 104.107L201.259 106.073L203.23 105.437ZM200.626 104.107L199.992 102.141L198.021 102.776L198.655 104.742L200.626 104.107ZM198.021 102.776L197.387 100.811L195.417 101.446L196.051 103.412L198.021 102.776ZM195.417 101.446L194.783 99.48L192.813 100.115L193.447 102.081L195.417 101.446ZM192.813 100.115L192.179 98.1495L190.209 98.7848L190.842 100.751L192.813 100.115ZM188.238 99.4201L190.209 98.7848L189.575 96.819L187.604 97.4543L186.97 95.4885L185 96.1238L195.775 129.543L199.716 128.272L199.082 126.307L197.112 126.942L188.238 99.4201ZM201.122 119.138L201.755 121.104L203.726 120.469L203.092 118.503L201.122 119.138ZM200.419 123.705L202.389 123.07L201.755 121.104L199.785 121.74L200.419 123.705ZM199.082 126.307L201.053 125.671L200.419 123.705L198.448 124.341L199.082 126.307ZM203.726 120.469L204.993 124.401L206.964 123.765L205.696 119.834L203.726 120.469ZM206.964 123.765L208.232 127.697L210.202 127.062L208.934 123.13L206.964 123.765ZM216.113 125.156L214.846 121.224L212.875 121.859L214.143 125.791L216.113 125.156ZM212.875 121.859L211.607 117.928L209.637 118.563L210.905 122.495L212.875 121.859ZM210.836 129.027L214.777 127.757L214.143 125.791L210.202 127.062L210.836 129.027Z" fill="black"></path>
            <path d="M204.83 90.7849V93.7546H195.746V90.7849H194V94.6275C194 95.1093 194.39 95.5 194.874 95.5H205.701C206.185 95.5 206.575 95.1097 206.575 94.6275V90.7849H204.83Z" fill="white"></path>
            <path d="M200.128 90.4905L197.628 87.4701C197.628 87.4701 197.248 87.111 197.66 87.111C198.073 87.111 199.069 87.111 199.069 87.111C199.069 87.111 199.069 86.8695 199.069 86.497C199.069 85.435 199.069 83.5022 199.069 82.7142C199.069 82.7142 199.013 82.5 199.335 82.5C199.661 82.5 201.085 82.5 201.318 82.5C201.551 82.5 201.545 82.6804 201.545 82.6804C201.545 83.4445 201.545 85.4441 201.545 86.4714C201.545 86.8044 201.545 87.0204 201.545 87.0204C201.545 87.0204 202.344 87.0204 202.845 87.0204C203.346 87.0204 202.969 87.3964 202.969 87.3964C202.969 87.3964 200.842 90.2194 200.546 90.5156C200.332 90.7303 200.128 90.4905 200.128 90.4905Z" fill="white"></path>
          </svg>