<svg xmlns="http://www.w3.org/2000/svg" enable-background="new 0 0 100 100" viewBox="0 0 100 100" id="sound-cloud" width="24" height="24" fill="white"><g>
<path d="M15.895 39.257c-1.724-.046-3.272 1.503-3.226 3.227 0 0 0 29.879 0 29.879-.015 1.84 1.519 2.558 3.226 2.564 1.743-.005 3.279-.702 3.271-2.564 0 0 0-29.879 0-29.879C19.205 40.735 17.655 39.209 15.895 39.257zM93.09 50.882c-4.171-4.329-10.857-5.552-16.332-3.227-.897-13.297-12.864-24.256-26.211-24.001-1.945 0-3.904.236-5.878.707-.913.295-1.37 1.208-1.37 2.74v48.09c.017.397.323.992.795 1.105 0 0 38.454.044 38.454.044C95.663 76.509 102.591 60.053 93.09 50.882zM8.999 54.064c-.085-4.32-6.408-4.338-6.498 0 0 0 0 12.818 0 12.818-.132 4.3 6.987 4.665 6.497 0C8.999 66.882 8.999 54.064 8.999 54.064zM37.243 25.511c-2.249-.51-4.43 1.759-4.287 4.199v44.2c0 1.62 1.09 2.431 3.271 2.431 2.181 0 3.271-.81 3.271-2.431v-44.2C39.498 27.235 38.746 25.835 37.243 25.511zM26.105 43.191c-1.782-.046-3.36 1.533-3.315 3.315v27.272c0 .854.309 1.496.928 1.923 1.736 1.187 5.712.86 5.613-1.923 0 0 0-27.272 0-27.272C29.38 44.753 27.858 43.149 26.105 43.191z">
</path></g>
</svg>