<svg width="22" height="23" viewBox="0 0 22 23" fill="none" xmlns="http://www.w3.org/2000/svg">
<path d="M12.65 22.2852C17.9424 21.4845 22 16.8922 22 11.3469C22 5.23768 17.0751 0.285156 11 0.285156C4.92487 0.285156 0 5.23768 0 11.3469C0 16.8922 4.05761 21.4845 9.35 22.2852L9.35 14.6655H7.7C6.78873 14.6655 6.05 13.9226 6.05 13.0062C6.05 12.0898 6.78873 11.3469 7.7 11.3469H9.35V9.13458C9.35 6.99634 11.0737 5.26296 13.2 5.26296H13.75C14.6612 5.26296 15.4 6.00583 15.4 6.92222C15.4 7.83862 14.6612 8.58149 13.75 8.58149H13.2C12.8963 8.58149 12.65 8.82912 12.65 9.13458V11.3469H14.3C15.2112 11.3469 15.95 12.0898 15.95 13.0062C15.95 13.9226 15.2112 14.6655 14.3 14.6655H12.65L12.65 22.2852Z" fill="#C5C6C9"/>
</svg>
