<svg width="20" height="21" viewBox="0 0 20 21" fill="none" xmlns="http://www.w3.org/2000/svg">
<path d="M14.4444 0.285156C17.5127 0.285156 20 2.77247 20 5.84071V14.7296C20 17.7978 17.5127 20.2852 14.4444 20.2852H5.55556C2.48731 20.2852 0 17.7978 0 14.7296L0 5.84071C0 2.77247 2.48731 0.285156 5.55556 0.285156L14.4444 0.285156ZM10 5.84071C7.5454 5.84071 5.55556 7.83056 5.55556 10.2852C5.55556 12.7397 7.5454 14.7296 10 14.7296C12.4546 14.7296 14.4444 12.7397 14.4444 10.2852C14.4444 7.83056 12.4546 5.84071 10 5.84071ZM10 8.06293C11.2273 8.06293 12.2222 9.05782 12.2222 10.2852C12.2222 11.5125 11.2273 12.5074 10 12.5074C8.77267 12.5074 7.77778 11.5125 7.77778 10.2852C7.77778 9.05782 8.77267 8.06293 10 8.06293ZM15 4.17405C14.3863 4.17405 13.8889 4.67151 13.8889 5.28516C13.8889 5.8988 14.3863 6.39627 15 6.39627C15.6137 6.39627 16.1111 5.8988 16.1111 5.28516C16.1111 4.67151 15.6137 4.17405 15 4.17405Z" fill="#C5C6C9"/>
</svg>
