<svg width="108" height="34" viewBox="0 0 108 34" fill="none" xmlns="http://www.w3.org/2000/svg">
        <g clip-path="url(#clip0_939_155)">
        <path d="M47.8484 24.0681C44.7155 24.0681 42.4179 23.4796 40.9581 22.2999C39.4983 21.1203 38.771 19.3264 38.771 16.9208C38.771 14.5153 39.5009 12.7188 40.9607 11.5392C42.4205 10.3595 44.7155 9.771 47.8509 9.771C50.9864 9.771 53.2814 10.3595 54.7463 11.5392C56.2113 12.7188 56.9411 14.5127 56.9411 16.9183C56.9411 19.3238 56.2087 21.1203 54.7463 22.2973C53.284 23.4744 50.9838 24.0655 47.8509 24.0655L47.8484 24.0681ZM47.8484 23.2534C50.552 23.2534 52.5695 22.7728 53.8957 21.8116C55.2244 20.8504 55.8874 19.221 55.8874 16.9208C55.8874 14.6206 55.2244 12.9887 53.8957 12.0301C52.5669 11.0689 50.552 10.5883 47.8484 10.5883C45.1447 10.5883 43.1298 11.0689 41.8062 12.0301C40.4827 12.9912 39.8222 14.6206 39.8222 16.9208C39.8222 19.221 40.4827 20.853 41.8062 21.8116C43.1298 22.7728 45.1447 23.2534 47.8484 23.2534Z" fill="#161616" stroke="#161616" stroke-width="1.54202" stroke-miterlimit="10"/>
        <path d="M61.0481 23.8084C60.8167 23.8084 60.6754 23.7184 60.6214 23.536C60.5675 23.3535 60.5418 23.1556 60.5418 22.9423V15.0266C60.5418 14.8364 60.5777 14.6745 60.6471 14.5383C60.7165 14.4021 60.8681 14.3352 61.0995 14.3352C61.2819 14.3352 61.3976 14.4021 61.4515 14.5331C61.5055 14.6642 61.5312 14.8312 61.5312 15.0266V16.4606C61.7137 15.7847 62.0478 15.2784 62.5387 14.9392C63.0295 14.5999 63.5641 14.3738 64.1398 14.2581C64.7155 14.1425 65.2192 14.0859 65.6484 14.0859C66.2832 14.0859 66.7484 14.1193 67.0465 14.1836C67.3446 14.2504 67.6068 14.3147 67.8381 14.3815C68.0103 14.4303 68.0977 14.5537 68.0977 14.7516C68.0977 14.8595 68.0617 14.9572 67.9923 15.0497C67.9229 15.1397 67.8175 15.1859 67.6762 15.1859C67.6428 15.1859 67.6196 15.1859 67.6093 15.1808C67.5965 15.1756 67.5708 15.1705 67.5297 15.1628C67.2084 15.0728 66.9 15.0034 66.6019 14.952C66.3038 14.9032 65.9877 14.8775 65.6484 14.8775C64.6744 14.8775 63.8108 15.0703 63.0578 15.4532C62.3022 15.8361 61.7934 16.4375 61.5312 17.2522V22.9423C61.5312 23.1556 61.5029 23.356 61.4438 23.536C61.3873 23.7184 61.2537 23.8084 61.0481 23.8084Z" fill="#161616" stroke="#161616" stroke-width="1.54202" stroke-miterlimit="10"/>
        <path d="M76.3886 23.9317C74.8723 23.9317 73.6644 23.7338 72.7649 23.3381C71.8654 22.9423 71.2203 22.3794 70.8297 21.6495C70.439 20.9197 70.2411 20.051 70.2411 19.0461C70.2411 17.2985 70.7371 16.034 71.7317 15.2553C72.7263 14.4766 74.2786 14.0859 76.3886 14.0859C78.4986 14.0859 80.0509 14.4766 81.0455 15.2553C82.0401 16.034 82.5362 17.2985 82.5362 19.0461C82.5362 20.0536 82.3408 20.9197 81.9476 21.6495C81.557 22.3794 80.9093 22.9423 80.0124 23.3381C79.1154 23.7338 77.905 23.9317 76.3886 23.9317ZM76.3886 23.2018C77.5092 23.2018 78.4138 23.0836 79.0975 22.842C79.7811 22.603 80.3002 22.2818 80.6498 21.8783C80.9993 21.4748 81.2383 21.0276 81.3617 20.5367C81.485 20.0458 81.5467 19.5498 81.5467 19.0461C81.5467 17.5118 81.1381 16.4247 80.3234 15.7796C79.5061 15.1371 78.1954 14.8158 76.3912 14.8158C74.587 14.8158 73.2738 15.1371 72.4591 15.7796C71.6418 16.4221 71.2357 17.5118 71.2357 19.0461C71.2357 19.5498 71.2974 20.0458 71.4208 20.5367C71.5441 21.0276 71.7806 21.4748 72.1327 21.8783C72.4822 22.2818 73.0013 22.603 73.685 22.842C74.3686 23.0811 75.2732 23.2018 76.3938 23.2018H76.3886Z" fill="#161616" stroke="#161616" stroke-width="1.54202" stroke-miterlimit="10"/>
        <path d="M86.6455 23.8084C86.4142 23.8084 86.2728 23.7184 86.2189 23.536C86.1649 23.3535 86.1392 23.1556 86.1392 22.9423V15.0266C86.1392 14.8364 86.1752 14.6745 86.2446 14.5383C86.314 14.4021 86.4656 14.3352 86.6969 14.3352C86.8794 14.3352 86.995 14.4021 87.049 14.5331C87.103 14.6642 87.1287 14.8312 87.1287 15.0266V16.4606C87.3111 15.7847 87.6452 15.2784 88.1361 14.9392C88.627 14.5999 89.1615 14.3738 89.7372 14.2581C90.3129 14.1425 90.8167 14.0859 91.2458 14.0859C91.8806 14.0859 92.3458 14.1193 92.6439 14.1836C92.9421 14.2504 93.2042 14.3147 93.4355 14.3815C93.6077 14.4303 93.6951 14.5537 93.6951 14.7516C93.6951 14.8595 93.6591 14.9572 93.5897 15.0497C93.5203 15.1397 93.415 15.1859 93.2736 15.1859C93.2402 15.1859 93.2171 15.1859 93.2068 15.1808C93.1939 15.1756 93.1682 15.1705 93.1271 15.1628C92.8059 15.0728 92.4975 15.0034 92.1993 14.952C91.9012 14.9032 91.5851 14.8775 91.2458 14.8775C90.2718 14.8775 89.4083 15.0703 88.6553 15.4532C87.8997 15.8361 87.3908 16.4375 87.1287 17.2522V22.9423C87.1287 23.1556 87.1004 23.356 87.0413 23.536C86.9847 23.7184 86.8511 23.8084 86.6455 23.8084Z" fill="#161616" stroke="#161616" stroke-width="1.54202" stroke-miterlimit="10"/>
        <path d="M100.526 23.9317C99.686 23.9317 98.9201 23.8341 98.2313 23.6413C97.5426 23.4486 96.9951 23.1376 96.5865 22.7135C96.1779 22.2895 95.9748 21.7292 95.9748 21.0379C95.9748 20.2309 96.1933 19.5987 96.6302 19.1463C97.0671 18.694 97.6556 18.3728 98.3984 18.1877C99.1411 18.0027 99.9738 17.9101 100.896 17.9101C101.953 17.9101 102.973 17.9693 103.957 18.0823C104.942 18.198 105.7 18.3702 106.227 18.6015C106.227 17.5041 106.034 16.6868 105.651 16.1471C105.268 15.6074 104.728 15.2476 104.032 15.0703C103.335 14.8929 102.516 14.803 101.578 14.803C100.292 14.803 99.3262 14.8775 98.6837 15.0266C98.0411 15.1756 97.522 15.3144 97.1262 15.4481C97.0774 15.4635 97.044 15.4738 97.0285 15.4738C96.9309 15.4738 96.8384 15.4224 96.7561 15.3196C96.6739 15.2168 96.6328 15.1114 96.6328 15.0034C96.6328 14.8955 96.6816 14.8184 96.7818 14.767C96.9232 14.7002 97.3961 14.5717 98.2056 14.3764C99.0126 14.1836 100.259 14.0859 101.94 14.0859C102.955 14.0859 103.862 14.2067 104.662 14.4509C105.461 14.695 106.09 15.1679 106.548 15.8721C107.005 16.5763 107.234 17.6223 107.234 19.0076V22.9397C107.234 23.1299 107.208 23.3201 107.154 23.5154C107.101 23.7081 106.959 23.8058 106.728 23.8058C106.538 23.8058 106.409 23.7184 106.337 23.5462C106.265 23.374 106.232 23.1556 106.232 22.8909V22.1995C105.993 22.4463 105.643 22.7033 105.186 22.9731C104.728 23.2404 104.124 23.4666 103.374 23.6542C102.624 23.8392 101.675 23.9317 100.529 23.9317H100.526ZM100.426 23.2018C102.05 23.2018 103.32 23.0194 104.235 22.657C105.15 22.2946 105.813 21.9451 106.227 21.6059V19.1206C105.427 19.005 104.577 18.897 103.672 18.7917C102.77 18.6889 101.876 18.6375 100.994 18.6375C99.7245 18.6375 98.7351 18.8019 98.0257 19.1309C97.3164 19.4599 96.9617 20.0947 96.9617 21.0353C96.9617 21.8192 97.2881 22.3743 97.9383 22.7058C98.5886 23.0348 99.4187 23.1993 100.424 23.1993L100.426 23.2018Z" fill="#161616" stroke="#161616" stroke-width="1.54202" stroke-miterlimit="10"/>
        </g>
        <g clip-path="url(#clip1_939_155)">
        <path d="M16.4963 0C7.38224 0 0 7.60565 0 16.9955C0 22.6018 2.63205 27.5692 6.68453 30.6635C9.43286 32.7594 12.8251 33.9987 16.4975 33.9987C20.1699 33.9987 23.5696 32.7594 26.3105 30.6558C30.3705 27.5679 33.0025 22.6018 33.0025 16.9955C33 7.60565 25.6103 0 16.4963 0ZM16.4975 25.9087C11.7211 25.9087 7.84863 21.9191 7.84863 16.9981C7.84863 12.0771 11.7211 8.08745 16.4975 8.08745C21.274 8.08745 25.1464 12.0771 25.1464 16.9981C25.1464 21.9191 21.274 25.9087 16.4975 25.9087Z" fill="url(#paint0_linear_939_155)"/>
        <path d="M26.3092 30.6557C23.5684 32.7594 20.1686 33.9987 16.4962 33.9987C12.8239 33.9987 9.43161 32.7594 6.68327 30.6634L12.1324 20.9374C14.073 17.4746 18.9257 17.4746 20.8663 20.9374L26.308 30.6544L26.3092 30.6557Z" fill="url(#paint1_linear_939_155)"/>
        </g>
        <defs>
          <linearGradient id="paint0_linear_939_155" x1="16.9364" y1="-8.93381" x2="15.9078" y2="48.6383" gradientUnits="userSpaceOnUse">
          <stop stop-color="#8FFFAB"/>
          <stop offset="1" stop-color="#2F4EFA"/>
          </linearGradient>
          <linearGradient id="paint1_linear_939_155" x1="15.796" y1="11.0335" x2="17.5106" y2="56.2888" gradientUnits="userSpaceOnUse">
          <stop stop-color="#8FFFAB"/>
          <stop offset="1" stop-color="#2F4EFA"/>
          </linearGradient>
          <clipPath id="clip0_939_155">
          <rect width="70" height="15.8391" fill="white" transform="translate(38 9)"/>
          </clipPath>
          <clipPath id="clip1_939_155">
          <rect width="33" height="34" fill="white"/>
          </clipPath>
        </defs>
      </svg>  