<svg width="232" height="188" viewBox="0 0 232 188" fill="none" xmlns="http://www.w3.org/2000/svg">
            <rect x="1" y="1.5" width="230" height="185" rx="5" fill="white" stroke="#D4DBE3" stroke-width="2"></rect>
            <circle cx="17.5" cy="19" r="3.5" fill="#D8DEE5" stroke="#C6CDD5" stroke-width="0.5"></circle>
            <circle cx="28.5" cy="19" r="3.5" fill="#D8DEE5" stroke="#C6CDD5" stroke-width="0.5"></circle>
            <circle cx="39.5" cy="19" r="3.25" fill="white" stroke="#C6CDD5" stroke-width="0.5"></circle>
            <path d="M14 57.5C14 54.7386 16.2386 52.5 19 52.5H214C216.761 52.5 219 54.7386 219 57.5V132.5H14V57.5Z" fill="#F8F9FA"></path>
            <path d="M55.1943 43.66C54.2236 43.66 53.3703 43.4893 52.6343 43.148C51.8983 42.796 51.2796 42.332 50.7783 41.756C50.2876 41.1693 49.9143 40.5133 49.6583 39.788C49.413 39.0627 49.2903 38.3213 49.2903 37.564C49.2903 36.8067 49.413 36.0707 49.6583 35.356C49.9143 34.6307 50.2876 33.98 50.7783 33.404C51.2796 32.828 51.8983 32.3693 52.6343 32.028C53.3703 31.676 54.2236 31.5 55.1943 31.5C56.165 31.5 57.0183 31.676 57.7543 32.028C58.4903 32.3693 59.1036 32.828 59.5943 33.404C60.0956 33.98 60.469 34.6307 60.7143 35.356C60.9703 36.0707 61.0983 36.8067 61.0983 37.564C61.0983 38.3213 60.9703 39.0627 60.7143 39.788C60.469 40.5133 60.0956 41.1693 59.5943 41.756C59.1036 42.332 58.4903 42.796 57.7543 43.148C57.0183 43.4893 56.165 43.66 55.1943 43.66ZM55.1943 41.692C55.9943 41.692 56.661 41.4947 57.1943 41.1C57.7383 40.7053 58.149 40.1933 58.4263 39.564C58.7143 38.9347 58.8583 38.268 58.8583 37.564C58.8583 36.8707 58.7143 36.2147 58.4263 35.596C58.149 34.9667 57.7383 34.4547 57.1943 34.06C56.661 33.6653 55.9943 33.468 55.1943 33.468C54.3943 33.468 53.7223 33.6653 53.1783 34.06C52.6343 34.4547 52.2236 34.9667 51.9463 35.596C51.669 36.2147 51.5303 36.8707 51.5303 37.564C51.5303 38.268 51.669 38.9347 51.9463 39.564C52.2236 40.1933 52.6343 40.7053 53.1783 41.1C53.7223 41.4947 54.3943 41.692 55.1943 41.692ZM62.0123 43.5V35.02H64.1243V36.188H64.2043C64.3536 35.8573 64.599 35.5533 64.9403 35.276C65.2816 34.9987 65.7936 34.86 66.4763 34.86C66.6896 34.86 66.8656 34.876 67.0043 34.908C67.143 34.9293 67.2123 34.94 67.2123 34.94V37.004C67.2123 37.004 67.1323 36.9933 66.9723 36.972C66.823 36.9507 66.6363 36.94 66.4123 36.94C65.6656 36.94 65.1003 37.148 64.7163 37.564C64.3323 37.98 64.1403 38.652 64.1403 39.58V43.5H62.0123ZM71.6394 43.66C70.7114 43.66 69.9221 43.452 69.2714 43.036C68.6208 42.62 68.1248 42.0813 67.7834 41.42C67.4528 40.748 67.2874 40.028 67.2874 39.26C67.2874 38.492 67.4528 37.7773 67.7834 37.116C68.1248 36.444 68.6208 35.9 69.2714 35.484C69.9221 35.068 70.7114 34.86 71.6394 34.86C72.5781 34.86 73.3674 35.068 74.0074 35.484C74.6581 35.9 75.1488 36.444 75.4794 37.116C75.8208 37.7773 75.9914 38.492 75.9914 39.26C75.9914 40.028 75.8208 40.748 75.4794 41.42C75.1488 42.0813 74.6581 42.62 74.0074 43.036C73.3674 43.452 72.5781 43.66 71.6394 43.66ZM71.6394 41.884C72.1194 41.884 72.5194 41.7613 72.8394 41.516C73.1701 41.2707 73.4208 40.9507 73.5914 40.556C73.7621 40.1507 73.8474 39.7187 73.8474 39.26C73.8474 38.7907 73.7621 38.3587 73.5914 37.964C73.4208 37.5693 73.1701 37.2493 72.8394 37.004C72.5194 36.7587 72.1194 36.636 71.6394 36.636C71.1701 36.636 70.7701 36.7587 70.4394 37.004C70.1088 37.2493 69.8581 37.5693 69.6874 37.964C69.5168 38.3587 69.4314 38.7907 69.4314 39.26C69.4314 39.7187 69.5168 40.1507 69.6874 40.556C69.8581 40.9507 70.1088 41.2707 70.4394 41.516C70.7701 41.7613 71.1701 41.884 71.6394 41.884ZM77.0529 43.5V35.02H79.1649V36.188H79.2449C79.3943 35.8573 79.6396 35.5533 79.9809 35.276C80.3223 34.9987 80.8343 34.86 81.5169 34.86C81.7303 34.86 81.9063 34.876 82.0449 34.908C82.1836 34.9293 82.2529 34.94 82.2529 34.94V37.004C82.2529 37.004 82.1729 36.9933 82.0129 36.972C81.8636 36.9507 81.6769 36.94 81.4529 36.94C80.7063 36.94 80.1409 37.148 79.7569 37.564C79.3729 37.98 79.1809 38.652 79.1809 39.58V43.5H77.0529ZM86.0881 34.86C86.6321 34.86 87.0801 34.9507 87.4321 35.132C87.7841 35.3027 88.0614 35.4947 88.2641 35.708C88.4667 35.9107 88.6054 36.076 88.6801 36.204H88.7761V35.02H90.9041V43.5H88.7761V42.316H88.6801C88.6054 42.444 88.4667 42.6147 88.2641 42.828C88.0614 43.0413 87.7841 43.2333 87.4321 43.404C87.0801 43.5747 86.6321 43.66 86.0881 43.66C85.4587 43.66 84.9094 43.5373 84.4401 43.292C83.9707 43.036 83.5761 42.7 83.2561 42.284C82.9467 41.8573 82.7121 41.3827 82.5521 40.86C82.4027 40.3373 82.3281 39.804 82.3281 39.26C82.3281 38.716 82.4027 38.1827 82.5521 37.66C82.7121 37.1373 82.9467 36.668 83.2561 36.252C83.5761 35.8253 83.9707 35.4893 84.4401 35.244C84.9094 34.988 85.4587 34.86 86.0881 34.86ZM86.6481 36.604C86.1681 36.604 85.7627 36.7373 85.4321 37.004C85.1121 37.26 84.8721 37.5907 84.7121 37.996C84.5521 38.4013 84.4721 38.8227 84.4721 39.26C84.4721 39.6973 84.5521 40.1187 84.7121 40.524C84.8721 40.9293 85.1121 41.2653 85.4321 41.532C85.7627 41.788 86.1681 41.916 86.6481 41.916C87.1281 41.916 87.5281 41.788 87.8481 41.532C88.1681 41.2653 88.4081 40.9293 88.5681 40.524C88.7281 40.1187 88.8081 39.6973 88.8081 39.26C88.8081 38.8227 88.7281 38.4013 88.5681 37.996C88.4081 37.5907 88.1681 37.26 87.8481 37.004C87.5281 36.7373 87.1281 36.604 86.6481 36.604ZM95.1411 43.5V31.66H99.3971C100.357 31.66 101.194 31.8307 101.909 32.172C102.634 32.5027 103.237 32.9507 103.717 33.516C104.197 34.0813 104.554 34.716 104.789 35.42C105.034 36.124 105.157 36.844 105.157 37.58C105.157 38.316 105.034 39.036 104.789 39.74C104.554 40.444 104.197 41.0787 103.717 41.644C103.237 42.2093 102.634 42.6627 101.909 43.004C101.194 43.3347 100.357 43.5 99.3971 43.5H95.1411ZM99.3011 33.564H97.3171V41.58H99.3011C100.133 41.58 100.821 41.388 101.365 41.004C101.909 40.6093 102.314 40.108 102.581 39.5C102.848 38.8813 102.981 38.236 102.981 37.564C102.981 36.9027 102.848 36.268 102.581 35.66C102.314 35.0413 101.909 34.54 101.365 34.156C100.821 33.7613 100.133 33.564 99.3011 33.564ZM110.296 43.66C109.368 43.66 108.578 43.452 107.928 43.036C107.277 42.62 106.781 42.0813 106.44 41.42C106.109 40.748 105.944 40.028 105.944 39.26C105.944 38.492 106.109 37.7773 106.44 37.116C106.781 36.444 107.277 35.9 107.928 35.484C108.578 35.068 109.368 34.86 110.296 34.86C111.234 34.86 112.024 35.068 112.664 35.484C113.314 35.9 113.805 36.444 114.136 37.116C114.477 37.7773 114.648 38.492 114.648 39.26C114.648 40.028 114.477 40.748 114.136 41.42C113.805 42.0813 113.314 42.62 112.664 43.036C112.024 43.452 111.234 43.66 110.296 43.66ZM110.296 41.884C110.776 41.884 111.176 41.7613 111.496 41.516C111.826 41.2707 112.077 40.9507 112.248 40.556C112.418 40.1507 112.504 39.7187 112.504 39.26C112.504 38.7907 112.418 38.3587 112.248 37.964C112.077 37.5693 111.826 37.2493 111.496 37.004C111.176 36.7587 110.776 36.636 110.296 36.636C109.826 36.636 109.426 36.7587 109.096 37.004C108.765 37.2493 108.514 37.5693 108.344 37.964C108.173 38.3587 108.088 38.7907 108.088 39.26C108.088 39.7187 108.173 40.1507 108.344 40.556C108.514 40.9507 108.765 41.2707 109.096 41.516C109.426 41.7613 109.826 41.884 110.296 41.884ZM117.415 43.5L114.759 35.02H116.887L118.583 40.844L120.391 35.02H122.327L124.135 40.844L125.831 35.02H127.959L125.287 43.5H123.031L121.367 38.108L119.687 43.5H117.415ZM128.581 43.5V35.02H130.709V36.236H130.805C130.89 36.0867 131.024 35.9053 131.205 35.692C131.386 35.468 131.637 35.276 131.957 35.116C132.277 34.9453 132.682 34.86 133.173 34.86C133.824 34.86 134.357 35.0093 134.773 35.308C135.2 35.596 135.514 35.98 135.717 36.46C135.93 36.94 136.037 37.4573 136.037 38.012V43.5H133.909V38.3C133.909 37.8413 133.781 37.4467 133.525 37.116C133.269 36.7853 132.885 36.62 132.373 36.62C131.978 36.62 131.658 36.7213 131.413 36.924C131.168 37.116 130.986 37.3667 130.869 37.676C130.762 37.9853 130.709 38.3107 130.709 38.652V43.5H128.581ZM137.379 43.5L137.395 31.34H139.507V43.5H137.379ZM145.018 43.66C144.09 43.66 143.3 43.452 142.65 43.036C141.999 42.62 141.503 42.0813 141.162 41.42C140.831 40.748 140.666 40.028 140.666 39.26C140.666 38.492 140.831 37.7773 141.162 37.116C141.503 36.444 141.999 35.9 142.65 35.484C143.3 35.068 144.09 34.86 145.018 34.86C145.956 34.86 146.746 35.068 147.386 35.484C148.036 35.9 148.527 36.444 148.858 37.116C149.199 37.7773 149.37 38.492 149.37 39.26C149.37 40.028 149.199 40.748 148.858 41.42C148.527 42.0813 148.036 42.62 147.386 43.036C146.746 43.452 145.956 43.66 145.018 43.66ZM145.018 41.884C145.498 41.884 145.898 41.7613 146.218 41.516C146.548 41.2707 146.799 40.9507 146.97 40.556C147.14 40.1507 147.226 39.7187 147.226 39.26C147.226 38.7907 147.14 38.3587 146.97 37.964C146.799 37.5693 146.548 37.2493 146.218 37.004C145.898 36.7587 145.498 36.636 145.018 36.636C144.548 36.636 144.148 36.7587 143.818 37.004C143.487 37.2493 143.236 37.5693 143.066 37.964C142.895 38.3587 142.81 38.7907 142.81 39.26C142.81 39.7187 142.895 40.1507 143.066 40.556C143.236 40.9507 143.487 41.2707 143.818 41.516C144.148 41.7613 144.548 41.884 145.018 41.884ZM153.985 34.86C154.529 34.86 154.977 34.9507 155.329 35.132C155.681 35.3027 155.958 35.4947 156.161 35.708C156.364 35.9107 156.502 36.076 156.577 36.204H156.673V35.02H158.801V43.5H156.673V42.316H156.577C156.502 42.444 156.364 42.6147 156.161 42.828C155.958 43.0413 155.681 43.2333 155.329 43.404C154.977 43.5747 154.529 43.66 153.985 43.66C153.356 43.66 152.806 43.5373 152.337 43.292C151.868 43.036 151.473 42.7 151.153 42.284C150.844 41.8573 150.609 41.3827 150.449 40.86C150.3 40.3373 150.225 39.804 150.225 39.26C150.225 38.716 150.3 38.1827 150.449 37.66C150.609 37.1373 150.844 36.668 151.153 36.252C151.473 35.8253 151.868 35.4893 152.337 35.244C152.806 34.988 153.356 34.86 153.985 34.86ZM154.545 36.604C154.065 36.604 153.66 36.7373 153.329 37.004C153.009 37.26 152.769 37.5907 152.609 37.996C152.449 38.4013 152.369 38.8227 152.369 39.26C152.369 39.6973 152.449 40.1187 152.609 40.524C152.769 40.9293 153.009 41.2653 153.329 41.532C153.66 41.788 154.065 41.916 154.545 41.916C155.025 41.916 155.425 41.788 155.745 41.532C156.065 41.2653 156.305 40.9293 156.465 40.524C156.625 40.1187 156.705 39.6973 156.705 39.26C156.705 38.8227 156.625 38.4013 156.465 37.996C156.305 37.5907 156.065 37.26 155.745 37.004C155.425 36.7373 155.025 36.604 154.545 36.604ZM163.685 43.66C163.056 43.66 162.506 43.5373 162.037 43.292C161.568 43.036 161.173 42.7 160.853 42.284C160.544 41.8573 160.309 41.3827 160.149 40.86C160 40.3373 159.925 39.804 159.925 39.26C159.925 38.716 160 38.1827 160.149 37.66C160.309 37.1373 160.544 36.668 160.853 36.252C161.173 35.8253 161.568 35.4893 162.037 35.244C162.506 34.988 163.056 34.86 163.685 34.86C164.229 34.86 164.677 34.9507 165.029 35.132C165.381 35.3027 165.658 35.4947 165.861 35.708C166.064 35.9107 166.202 36.076 166.277 36.204H166.373V31.34H168.501V43.5H166.373V42.316H166.277C166.202 42.444 166.064 42.6147 165.861 42.828C165.658 43.0413 165.381 43.2333 165.029 43.404C164.677 43.5747 164.229 43.66 163.685 43.66ZM164.245 41.916C164.725 41.916 165.125 41.788 165.445 41.532C165.765 41.2653 166.005 40.9293 166.165 40.524C166.325 40.1187 166.405 39.6973 166.405 39.26C166.405 38.8227 166.325 38.4013 166.165 37.996C166.005 37.5907 165.765 37.26 165.445 37.004C165.125 36.7373 164.725 36.604 164.245 36.604C163.765 36.604 163.36 36.7373 163.029 37.004C162.709 37.26 162.469 37.5907 162.309 37.996C162.149 38.4013 162.069 38.8227 162.069 39.26C162.069 39.6973 162.149 40.1187 162.309 40.524C162.469 40.9293 162.709 41.2653 163.029 41.532C163.36 41.788 163.765 41.916 164.245 41.916ZM173.88 43.66C173.155 43.66 172.526 43.5373 171.992 43.292C171.47 43.036 171.032 42.7 170.68 42.284C170.339 41.8573 170.083 41.3827 169.912 40.86C169.742 40.3373 169.656 39.804 169.656 39.26C169.656 38.716 169.736 38.188 169.896 37.676C170.067 37.1533 170.318 36.6787 170.648 36.252C170.99 35.8253 171.422 35.4893 171.944 35.244C172.467 34.988 173.086 34.86 173.8 34.86C174.568 34.86 175.246 35.0307 175.832 35.372C176.419 35.7133 176.878 36.2147 177.208 36.876C177.539 37.5267 177.704 38.3373 177.704 39.308V39.852H171.8C171.832 40.428 172.03 40.9293 172.392 41.356C172.755 41.772 173.251 41.98 173.88 41.98C174.243 41.98 174.542 41.9213 174.776 41.804C175.011 41.6867 175.192 41.5533 175.32 41.404C175.448 41.244 175.539 41.1107 175.592 41.004C175.646 40.8867 175.672 40.828 175.672 40.828H177.64C177.64 40.828 177.614 40.924 177.56 41.116C177.507 41.2973 177.406 41.532 177.256 41.82C177.118 42.0973 176.91 42.38 176.632 42.668C176.355 42.9453 175.992 43.18 175.544 43.372C175.096 43.564 174.542 43.66 173.88 43.66ZM171.8 38.46H175.656C175.624 37.7987 175.427 37.308 175.064 36.988C174.702 36.668 174.275 36.508 173.784 36.508C173.24 36.508 172.787 36.684 172.424 37.036C172.062 37.3773 171.854 37.852 171.8 38.46ZM178.765 43.5V35.02H180.877V36.188H180.957C181.107 35.8573 181.352 35.5533 181.693 35.276C182.035 34.9987 182.547 34.86 183.229 34.86C183.443 34.86 183.619 34.876 183.757 34.908C183.896 34.9293 183.965 34.94 183.965 34.94V37.004C183.965 37.004 183.885 36.9933 183.725 36.972C183.576 36.9507 183.389 36.94 183.165 36.94C182.419 36.94 181.853 37.148 181.469 37.564C181.085 37.98 180.893 38.652 180.893 39.58V43.5H178.765Z" fill="#518BE0"></path>
            <rect x="14" y="144.5" width="205" height="26" rx="5" fill="#518BE0" stroke="#518BE0" stroke-width="2"></rect>
            <path d="M89.2738 163.5V151.66H93.3218C94.2711 151.66 95.1031 151.831 95.8178 152.172C96.5325 152.503 97.1245 152.951 97.5938 153.516C98.0738 154.081 98.4311 154.716 98.6658 155.42C98.9111 156.124 99.0338 156.844 99.0338 157.58C99.0338 158.316 98.9111 159.036 98.6658 159.74C98.4311 160.444 98.0738 161.079 97.5938 161.644C97.1245 162.209 96.5325 162.663 95.8178 163.004C95.1031 163.335 94.2711 163.5 93.3218 163.5H89.2738ZM93.2418 153.292H91.1458V161.852H93.2418C93.9031 161.852 94.4791 161.735 94.9698 161.5C95.4605 161.255 95.8658 160.929 96.1858 160.524C96.5058 160.108 96.7458 159.649 96.9058 159.148C97.0765 158.636 97.1618 158.113 97.1618 157.58C97.1618 157.047 97.0765 156.524 96.9058 156.012C96.7458 155.5 96.5058 155.041 96.1858 154.636C95.8658 154.231 95.4605 153.905 94.9698 153.66C94.4791 153.415 93.9031 153.292 93.2418 153.292ZM104.223 163.66C103.295 163.66 102.511 163.452 101.871 163.036C101.242 162.62 100.762 162.076 100.431 161.404C100.111 160.732 99.9511 160.017 99.9511 159.26C99.9511 158.503 100.111 157.788 100.431 157.116C100.762 156.444 101.242 155.9 101.871 155.484C102.511 155.068 103.295 154.86 104.223 154.86C105.14 154.86 105.914 155.068 106.543 155.484C107.183 155.9 107.663 156.444 107.983 157.116C108.314 157.788 108.479 158.503 108.479 159.26C108.479 160.017 108.314 160.732 107.983 161.404C107.663 162.076 107.183 162.62 106.543 163.036C105.914 163.452 105.14 163.66 104.223 163.66ZM104.223 162.108C104.746 162.108 105.183 161.975 105.535 161.708C105.898 161.441 106.17 161.089 106.351 160.652C106.543 160.215 106.639 159.751 106.639 159.26C106.639 158.759 106.543 158.295 106.351 157.868C106.17 157.431 105.898 157.079 105.535 156.812C105.183 156.545 104.746 156.412 104.223 156.412C103.7 156.412 103.258 156.545 102.895 156.812C102.532 157.079 102.26 157.431 102.079 157.868C101.898 158.295 101.807 158.759 101.807 159.26C101.807 159.751 101.898 160.215 102.079 160.652C102.26 161.089 102.532 161.441 102.895 161.708C103.258 161.975 103.7 162.108 104.223 162.108ZM111.439 163.5L108.735 155.02H110.575L112.431 161.148L114.383 155.02H116.079L118.031 161.148L119.887 155.02H121.743L119.023 163.5H117.087L115.231 157.676L113.391 163.5H111.439ZM122.495 163.5V155.02H124.319V156.252H124.415C124.49 156.103 124.618 155.921 124.799 155.708C124.98 155.484 125.231 155.287 125.551 155.116C125.882 154.945 126.298 154.86 126.799 154.86C127.428 154.86 127.956 155.004 128.383 155.292C128.81 155.58 129.13 155.964 129.343 156.444C129.567 156.924 129.679 157.452 129.679 158.028V163.5H127.855V158.22C127.855 157.708 127.711 157.276 127.423 156.924C127.146 156.572 126.73 156.396 126.175 156.396C125.738 156.396 125.38 156.508 125.103 156.732C124.836 156.945 124.639 157.228 124.511 157.58C124.383 157.921 124.319 158.289 124.319 158.684V163.5H122.495ZM131.152 163.5L131.168 151.34H132.976V163.5H131.152ZM138.539 163.66C137.611 163.66 136.827 163.452 136.187 163.036C135.557 162.62 135.077 162.076 134.747 161.404C134.427 160.732 134.267 160.017 134.267 159.26C134.267 158.503 134.427 157.788 134.747 157.116C135.077 156.444 135.557 155.9 136.187 155.484C136.827 155.068 137.611 154.86 138.539 154.86C139.456 154.86 140.229 155.068 140.859 155.484C141.499 155.9 141.979 156.444 142.299 157.116C142.629 157.788 142.795 158.503 142.795 159.26C142.795 160.017 142.629 160.732 142.299 161.404C141.979 162.076 141.499 162.62 140.859 163.036C140.229 163.452 139.456 163.66 138.539 163.66ZM138.539 162.108C139.061 162.108 139.499 161.975 139.851 161.708C140.213 161.441 140.485 161.089 140.667 160.652C140.859 160.215 140.955 159.751 140.955 159.26C140.955 158.759 140.859 158.295 140.667 157.868C140.485 157.431 140.213 157.079 139.851 156.812C139.499 156.545 139.061 156.412 138.539 156.412C138.016 156.412 137.573 156.545 137.211 156.812C136.848 157.079 136.576 157.431 136.395 157.868C136.213 158.295 136.123 158.759 136.123 159.26C136.123 159.751 136.213 160.215 136.395 160.652C136.576 161.089 136.848 161.441 137.211 161.708C137.573 161.975 138.016 162.108 138.539 162.108ZM147.556 154.86C148.089 154.86 148.532 154.945 148.884 155.116C149.247 155.287 149.535 155.484 149.748 155.708C149.961 155.932 150.116 156.124 150.212 156.284H150.308V155.02H152.132V163.5H150.308V162.236H150.212C150.116 162.396 149.961 162.588 149.748 162.812C149.535 163.036 149.247 163.233 148.884 163.404C148.532 163.575 148.089 163.66 147.556 163.66C146.916 163.66 146.356 163.537 145.876 163.292C145.407 163.036 145.012 162.7 144.692 162.284C144.372 161.857 144.132 161.383 143.972 160.86C143.823 160.337 143.748 159.804 143.748 159.26C143.748 158.716 143.823 158.183 143.972 157.66C144.132 157.137 144.372 156.668 144.692 156.252C145.012 155.825 145.407 155.489 145.876 155.244C146.356 154.988 146.916 154.86 147.556 154.86ZM147.956 156.38C147.433 156.38 146.996 156.524 146.644 156.812C146.292 157.089 146.025 157.447 145.844 157.884C145.673 158.321 145.588 158.78 145.588 159.26C145.588 159.74 145.673 160.199 145.844 160.636C146.025 161.073 146.292 161.436 146.644 161.724C146.996 162.001 147.433 162.14 147.956 162.14C148.479 162.14 148.911 162.001 149.252 161.724C149.604 161.436 149.865 161.073 150.036 160.636C150.217 160.199 150.308 159.74 150.308 159.26C150.308 158.78 150.217 158.321 150.036 157.884C149.865 157.447 149.604 157.089 149.252 156.812C148.911 156.524 148.479 156.38 147.956 156.38ZM157.147 163.66C156.507 163.66 155.947 163.537 155.467 163.292C154.997 163.036 154.603 162.7 154.283 162.284C153.963 161.857 153.723 161.383 153.563 160.86C153.413 160.337 153.339 159.804 153.339 159.26C153.339 158.716 153.413 158.183 153.563 157.66C153.723 157.137 153.963 156.668 154.283 156.252C154.603 155.825 154.997 155.489 155.467 155.244C155.947 154.988 156.507 154.86 157.147 154.86C157.68 154.86 158.123 154.945 158.475 155.116C158.837 155.287 159.125 155.484 159.339 155.708C159.552 155.932 159.707 156.124 159.803 156.284H159.899V151.34H161.723V163.5H159.899V162.236H159.803C159.707 162.396 159.552 162.588 159.339 162.812C159.125 163.036 158.837 163.233 158.475 163.404C158.123 163.575 157.68 163.66 157.147 163.66ZM157.547 162.14C158.069 162.14 158.501 162.001 158.843 161.724C159.195 161.436 159.456 161.073 159.627 160.636C159.808 160.199 159.899 159.74 159.899 159.26C159.899 158.78 159.808 158.321 159.627 157.884C159.456 157.447 159.195 157.089 158.843 156.812C158.501 156.524 158.069 156.38 157.547 156.38C157.024 156.38 156.587 156.524 156.235 156.812C155.883 157.089 155.616 157.447 155.435 157.884C155.264 158.321 155.179 158.78 155.179 159.26C155.179 159.74 155.264 160.199 155.435 160.636C155.616 161.073 155.883 161.436 156.235 161.724C156.587 162.001 157.024 162.14 157.547 162.14Z" fill="white"></path>
            <path d="M81.8296 158.785V161.755H72.7459V158.785H71V162.627C71 163.109 71.3903 163.5 71.8742 163.5H82.7012C83.1847 163.5 83.5755 163.11 83.5755 162.627V158.785H81.8296Z" fill="white"></path>
            <path d="M77.1277 158.49L74.6282 155.47C74.6282 155.47 74.2479 155.111 74.6603 155.111C75.0727 155.111 76.0688 155.111 76.0688 155.111C76.0688 155.111 76.0688 154.869 76.0688 154.497C76.0688 153.435 76.0688 151.502 76.0688 150.714C76.0688 150.714 76.0128 150.5 76.3355 150.5C76.6607 150.5 78.0852 150.5 78.3181 150.5C78.5505 150.5 78.5453 150.68 78.5453 150.68C78.5453 151.444 78.5453 153.444 78.5453 154.471C78.5453 154.804 78.5453 155.02 78.5453 155.02C78.5453 155.02 79.3441 155.02 79.8454 155.02C80.3459 155.02 79.969 155.396 79.969 155.396C79.969 155.396 77.8424 158.219 77.5458 158.516C77.3324 158.73 77.1277 158.49 77.1277 158.49Z" fill="white"></path>
            <path d="M192.614 160.023L194.851 160.104L212.18 168.958L213.371 170.78L207.543 172.659L208.129 174.476L209.215 174.727L211.61 177.164L212.547 180.071L209.633 181.01L204.845 176.136L203.388 176.606L201.412 180.452L199.646 181.523L192.614 160.023Z" fill="white"></path>
            <path d="M212.18 168.957L213.637 168.488L214.574 171.395L208.747 173.273L209.215 174.727L207.758 175.197L206.821 172.29L212.649 170.411L212.18 168.957ZM212.18 168.957L211.711 167.504L210.254 167.974L210.723 169.427L212.18 168.957ZM210.254 167.974L209.786 166.52L208.329 166.99L208.798 168.443L210.254 167.974ZM208.329 166.99L207.86 165.537L206.404 166.006L206.872 167.46L208.329 166.99ZM206.404 166.006L205.935 164.553L204.478 165.023L204.947 166.476L206.404 166.006ZM204.478 165.023L204.01 163.569L202.553 164.039L203.021 165.492L204.478 165.023ZM202.553 164.039L202.084 162.585L200.627 163.055L201.096 164.509L202.553 164.039ZM200.627 163.055L200.159 161.602L198.702 162.071L199.17 163.525L200.627 163.055ZM198.702 162.071L198.233 160.618L196.776 161.088L197.245 162.541L198.702 162.071ZM196.776 161.088L196.308 159.634L194.851 160.104L195.32 161.557L196.776 161.088ZM193.394 160.574L194.851 160.104L194.382 158.65L192.925 159.12L192.457 157.667L191 158.136L198.967 182.845L201.88 181.905L201.412 180.452L199.955 180.922L193.394 160.574ZM202.919 175.152L203.388 176.606L204.845 176.136L204.376 174.683L202.919 175.152ZM202.4 178.529L203.857 178.059L203.388 176.606L201.931 177.075L202.4 178.529ZM201.412 180.452L202.868 179.982L202.4 178.529L200.943 178.999L201.412 180.452ZM204.845 176.136L205.782 179.043L207.239 178.573L206.302 175.666L204.845 176.136ZM207.239 178.573L208.176 181.48L209.633 181.01L208.696 178.103L207.239 178.573ZM214.003 179.601L213.066 176.694L211.609 177.164L212.547 180.071L214.003 179.601ZM211.609 177.164L210.672 174.257L209.215 174.727L210.153 177.634L211.609 177.164ZM210.102 182.464L213.015 181.524L212.547 180.071L209.633 181.01L210.102 182.464Z" fill="black"></path>
            <path fill-rule="evenodd" clip-rule="evenodd" d="M116.5 109.5C125.06 109.5 132 102.56 132 94C132 85.4396 125.06 78.5 116.5 78.5C107.94 78.5 101 85.4396 101 94C101 102.56 107.94 109.5 116.5 109.5ZM113.116 86.3793L125.26 93.1258C125.946 93.5068 125.946 94.4932 125.26 94.8742L113.116 101.621C112.316 102.065 111.333 101.487 111.333 100.572V87.4283C111.333 86.5133 112.316 85.935 113.116 86.3793Z" fill="#E4EAF3"></path>
          </svg>