<svg width="22" height="17" viewBox="0 0 22 17" fill="none" xmlns="http://www.w3.org/2000/svg">
<path fill-rule="evenodd" clip-rule="evenodd" d="M11 0.285156C11.941 0.285156 12.9048 0.307575 13.8398 0.342923L14.9448 0.39094L16.0022 0.447725L16.9923 0.509635L17.8953 0.573026C19.9172 0.722176 21.542 2.14458 21.7396 3.99625L21.7834 4.42078L21.8659 5.33073C21.943 6.27396 22 7.30249 22 8.28516C22 9.26782 21.943 10.2964 21.8659 11.2396L21.7834 12.1495C21.769 12.2948 21.7543 12.4365 21.7396 12.5741C21.542 14.4258 19.9172 15.8482 17.8953 15.9973L16.9923 16.0606L16.0022 16.1226L14.9448 16.1793L13.8398 16.2274C12.9048 16.2627 11.941 16.2852 11 16.2852C10.0591 16.2852 9.09522 16.2627 8.16018 16.2274L7.05524 16.1793L5.99779 16.1226L5.00764 16.0606L4.10465 15.9973C2.08286 15.8482 0.45804 14.4258 0.260348 12.5741L0.216614 12.1495L0.134115 11.2396C0.0569751 10.2964 0 9.26782 0 8.28516C0 7.30249 0.0569751 6.27396 0.134115 5.33073L0.216614 4.42078C0.231029 4.27549 0.245664 4.13377 0.260348 3.99625C0.45804 2.14458 2.08286 0.722176 4.10465 0.573026L5.00764 0.509635L5.99778 0.447725L7.05524 0.39094L8.16017 0.342923C9.09522 0.307575 10.059 0.285156 11 0.285156ZM8.8 5.86029V10.7101C8.8 11.172 9.35 11.4606 9.79 11.2297L14.41 8.80476C14.85 8.57386 14.85 7.99646 14.41 7.76556L9.79 5.34067C9.35 5.10973 8.8 5.39841 8.8 5.86029Z" fill="#C5C6C9"/>
</svg>
